<svg width="333" height="395" viewBox="0 0 333 395" fill="none" xmlns="http://www.w3.org/2000/svg">
<g filter="url(#filter0_d_7_34)">
<path d="M192.564 189.418C192.564 294.031 180.883 378.837 166.473 378.837C152.063 378.837 140.382 294.031 140.382 189.418C140.382 84.8055 138.944 0 166.473 0C194.208 0 192.564 84.8055 192.564 189.418Z" fill="#D9D9D9"/>
<path d="M7.66573 201.334C18.5542 190.446 142.642 114.637 142.642 114.637L143.669 205.032L0.680664 235.232C0.680664 235.232 -3.22275 212.223 7.66573 201.334Z" fill="#D9D9D9"/>
<path d="M325.28 201.334C314.392 190.446 190.304 114.637 190.304 114.637L189.277 205.032L332.266 235.232C332.266 235.232 336.169 212.223 325.28 201.334Z" fill="#D9D9D9"/>
<path d="M203.798 365.688L179.145 341.035L171.198 369.822L192.294 383.356C211.523 386.972 207.976 373.084 203.798 365.688Z" fill="#D9D9D9"/>
<path d="M128.884 365.688L153.537 341.035L161.484 369.823L140.389 383.356C121.16 386.972 124.707 373.084 128.884 365.688Z" fill="#D9D9D9"/>
<path d="M91.0755 132.1L97.2388 144.221L113.674 133.743L106.484 121.622C93.6641 116.363 90.8701 126.416 91.0755 132.1Z" fill="#D9D9D9"/>
<path d="M33.5618 167.268L39.7251 179.39L56.1605 168.912L48.97 156.791C36.1504 151.531 33.3564 161.584 33.5618 167.268Z" fill="#D9D9D9"/>
<path d="M238.173 131.932L232.009 144.053L215.574 133.576L222.764 121.455C235.584 116.195 238.378 126.248 238.173 131.932Z" fill="#D9D9D9"/>
<path d="M295.686 167.101L289.523 179.222L273.088 168.744L280.278 156.623C293.098 151.364 295.892 161.417 295.686 167.101Z" fill="#D9D9D9"/>
<path d="M114.701 181.406V210.99L30.2644 228.658L29.8535 218.797L114.701 181.406Z" fill="#828282"/>
<path d="M218.45 181.612V211.195L302.887 228.863L303.298 219.002L218.45 181.612Z" fill="#828282"/>
<path d="M172.408 362.607C172.408 374.747 173.435 385 166.45 385C160.287 385 161.52 375.158 161.52 363.018C161.52 350.877 166.45 341.035 166.45 341.035C166.45 341.035 172.408 350.466 172.408 362.607Z" fill="#828282"/>
</g>
<defs>
<filter id="filter0_d_7_34" x="7.62939e-06" y="0" width="332.946" height="395" filterUnits="userSpaceOnUse" color-interpolation-filters="sRGB">
<feFlood flood-opacity="0" result="BackgroundImageFix"/>
<feColorMatrix in="SourceAlpha" type="matrix" values="0 0 0 0 0 0 0 0 0 0 0 0 0 0 0 0 0 0 127 0" result="hardAlpha"/>
<feOffset dy="10"/>
<feComposite in2="hardAlpha" operator="out"/>
<feColorMatrix type="matrix" values="0 0 0 0 0 0 0 0 0 0 0 0 0 0 0 0 0 0 0.25 0"/>
<feBlend mode="normal" in2="BackgroundImageFix" result="effect1_dropShadow_7_34"/>
<feBlend mode="normal" in="SourceGraphic" in2="effect1_dropShadow_7_34" result="shape"/>
</filter>
</defs>
</svg>
