<?xml version="1.0" encoding="UTF-8"?>
<svg xmlns="http://www.w3.org/2000/svg" viewBox="0 0 719.14 446.18">
  <defs>
    <style>
      .cls-1 {
        letter-spacing: -.02em;
      }

      .cls-2, .cls-3, .cls-4 {
        fill: #37474f;
      }

      .cls-5 {
        letter-spacing: 0em;
      }

      .cls-6 {
        letter-spacing: 0em;
      }

      .cls-7 {
        fill: #ff6e40;
      }

      .cls-8 {
        fill: #00bfa5;
      }

      .cls-9 {
        letter-spacing: 0em;
      }

      .cls-3 {
        font-family: MuseoSansRounded-700, 'MuseoSansRounded 700';
        font-size: 37.64px;
      }

      .cls-4 {
        font-family: MuseoSansRounded-300, 'MuseoSansRounded 300';
        font-size: 15.16px;
      }

      .cls-10 {
        letter-spacing: .03em;
      }
    </style>
  </defs>
  <g id="Objects">
    <g>
      <path class="cls-8" d="M8.73,132.96c-.74,0-1.48-.28-2.04-.85-1.13-1.13-1.13-2.96,0-4.09l26.27-26.27L6.69,75.49c-1.13-1.13-1.13-2.96,0-4.09,1.13-1.13,2.96-1.13,4.09,0l28.31,28.31c1.13,1.13,1.13,2.96,0,4.09l-28.31,28.31c-.56,.56-1.3,.85-2.04,.85Z"/>
      <path class="cls-8" d="M22.89,132.96c-.74,0-1.48-.28-2.04-.85-1.13-1.13-1.13-2.96,0-4.09l26.27-26.27-26.27-26.27c-1.13-1.13-1.13-2.96,0-4.09,1.13-1.13,2.96-1.13,4.09,0l28.31,28.31c1.13,1.13,1.13,2.96,0,4.09l-28.31,28.31c-.56,.56-1.3,.85-2.04,.85Z"/>
      <path class="cls-8" d="M37.04,132.96c-.74,0-1.48-.28-2.04-.85-1.13-1.13-1.13-2.96,0-4.09l26.27-26.27-26.27-26.27c-1.13-1.13-1.13-2.96,0-4.09,1.13-1.13,2.96-1.13,4.09,0l28.31,28.31c1.13,1.13,1.13,2.96,0,4.09l-28.31,28.31c-.56,.56-1.3,.85-2.04,.85Z"/>
    </g>
    <polygon class="cls-8" points="326.08 73.45 283.67 73.45 302.94 101.76 283.67 130.07 326.08 130.07 344.87 101.76 326.08 73.45"/>
    <g>
      <polygon class="cls-7" points="332.47 355.07 295.65 355.07 314.14 382.22 295.65 409.37 332.47 409.37 350.49 382.22 332.47 355.07"/>
      <polygon class="cls-7" points="290.03 355.07 278.04 355.07 296.53 382.22 278.04 409.37 290.03 409.37 308.05 382.22 290.03 355.07"/>
    </g>
    <g>
      <polygon class="cls-8" points="298.05 267.46 281.26 267.46 304.03 291.16 281.26 314.86 298.05 314.86 320.26 291.16 298.05 267.46"/>
      <polygon class="cls-8" points="325.08 267.46 308.28 267.46 331.05 291.16 308.28 314.86 325.08 314.86 347.28 291.16 325.08 267.46"/>
    </g>
    <polygon class="cls-7" points="69.5 198.21 4.58 165.19 26.72 198.21 4.58 231.22 69.5 198.21"/>
    <g>
      <polygon class="cls-7" points="45.11 382.22 0 352.74 25.41 382.22 0 411.69 45.11 382.22"/>
      <polygon class="cls-7" points="74.09 382.22 28.98 352.74 54.39 382.22 28.98 411.69 74.09 382.22"/>
    </g>
    <polygon class="cls-7" points="328.49 163.64 307.04 163.64 319.75 182.32 281.26 182.32 281.26 201.59 319.75 201.59 307.04 220.27 328.49 220.27 347.28 191.95 328.49 163.64"/>
    <path class="cls-8" d="M69.54,290.35l-21.21-26.81c-.76-.96-2.31-.42-2.31,.8v6.9c0,.72-.58,1.3-1.3,1.3H5.57c-.72,0-1.3,.58-1.3,1.3v34.64c0,.72,.58,1.3,1.3,1.3H44.72c.72,0,1.3,.58,1.3,1.3v6.9c0,1.23,1.55,1.77,2.31,.8l21.21-26.81c.37-.47,.37-1.14,0-1.61Z"/>
    <path class="cls-7" d="M161.05,74.87c-3.77-2.35-8.64,.36-8.64,4.8v44.18c0,4.44,4.88,7.14,8.64,4.8l35.43-22.09c3.55-2.21,3.55-7.38,0-9.59l-35.43-22.09Z"/>
    <g>
      <polygon class="cls-7" points="158.13 273.39 158.13 291.16 158.13 308.93 186.64 291.16 158.13 273.39"/>
      <path class="cls-7" d="M149.89,258.88v64.55l51.76-32.28-51.76-32.28Zm5.16,32.28v-23.6l37.85,23.6-37.85,23.6v-23.6Z"/>
    </g>
    <g>
      <polygon class="cls-8" points="158.12 215.48 154.03 211.4 173.24 192.18 154.03 172.97 158.12 168.88 181.42 192.18 158.12 215.48"/>
      <polygon class="cls-8" points="161.21 228.49 157.12 224.4 189.34 192.18 157.12 159.96 161.21 155.87 197.52 192.18 161.21 228.49"/>
    </g>
    <polygon class="cls-8" points="213.02 382.17 212.92 382.17 185.22 354.47 185.22 370.36 138.53 370.36 151.3 382.22 138.53 393.98 185.22 393.98 185.22 394.08 185.22 409.97 212.92 382.27 213.02 382.27 212.97 382.22 213.02 382.17"/>
    <text class="cls-3" transform="translate(107.05 31.5)"><tspan x="0" y="0">AR</tspan><tspan class="cls-5" x="43.28" y="0">R</tspan><tspan x="63.65" y="0">OW</tspan></text>
    <text class="cls-4" transform="translate(128.97 50)"><tspan class="cls-1" x="0" y="0">C</tspan><tspan class="cls-9" x="8.47" y="0">OLLE</tspan><tspan class="cls-10" x="40.68" y="0">C</tspan><tspan class="cls-6" x="49.89" y="0">TION</tspan></text>
    <path class="cls-7" d="M681.05,91.29c-3.77-2.35-8.64,.36-8.64,4.8v44.18c0,4.44,4.88,7.14,8.64,4.8l35.43-22.09c3.55-2.21,3.55-7.38,0-9.59l-35.43-22.09Z"/>
  </g>
  <g id="Designed_by_Freepik" data-name="Designed by Freepik">
    <g>
      <g>
        <path class="cls-2" d="M106.08,442.85v-.16c-.22,.25-.43,.45-.64,.61-.21,.16-.44,.28-.69,.36-.25,.08-.52,.12-.81,.12-.39,0-.75-.08-1.08-.25-.33-.16-.62-.4-.86-.7-.24-.3-.42-.66-.55-1.07s-.19-.86-.19-1.34c0-1.01,.25-1.8,.74-2.37,.49-.57,1.15-.85,1.95-.85,.47,0,.86,.08,1.18,.24,.32,.16,.63,.41,.94,.74v-2.39c0-.33,.07-.58,.2-.75,.13-.17,.32-.26,.57-.26s.43,.08,.57,.23c.13,.16,.2,.39,.2,.69v7.15c0,.31-.07,.54-.21,.69-.14,.15-.33,.23-.55,.23s-.4-.08-.55-.24c-.14-.16-.22-.39-.22-.69Zm-3.19-2.38c0,.44,.07,.81,.2,1.12,.14,.31,.32,.54,.56,.7,.24,.16,.5,.24,.78,.24s.54-.07,.78-.22c.24-.15,.42-.38,.56-.68,.14-.31,.21-.69,.21-1.15,0-.43-.07-.8-.21-1.11-.14-.31-.33-.55-.57-.71-.24-.16-.5-.25-.79-.25s-.56,.08-.8,.25c-.23,.17-.41,.41-.54,.72-.13,.32-.19,.68-.19,1.1Z"/>
        <path class="cls-2" d="M113.23,440.88h-3.17c0,.37,.08,.69,.22,.97,.14,.28,.34,.49,.58,.64,.24,.14,.5,.21,.79,.21,.19,0,.37-.02,.53-.07,.16-.05,.32-.12,.47-.21,.15-.1,.29-.2,.42-.31,.13-.11,.29-.26,.49-.45,.08-.07,.2-.11,.36-.11,.17,0,.3,.05,.4,.14,.1,.09,.15,.22,.15,.39,0,.15-.06,.32-.17,.51-.12,.2-.29,.38-.52,.56-.23,.18-.52,.33-.87,.45-.35,.12-.75,.18-1.21,.18-1.04,0-1.85-.3-2.43-.89-.58-.59-.87-1.4-.87-2.42,0-.48,.07-.92,.21-1.33,.14-.41,.35-.76,.62-1.05,.27-.29,.61-.52,1.01-.67,.4-.16,.84-.23,1.33-.23,.63,0,1.18,.13,1.63,.4,.45,.27,.79,.61,1.02,1.04,.22,.42,.34,.86,.34,1.29,0,.41-.12,.67-.35,.79-.23,.12-.56,.18-.99,.18Zm-3.17-.92h2.94c-.04-.55-.19-.97-.45-1.24-.26-.28-.6-.41-1.02-.41s-.74,.14-.99,.42c-.26,.28-.42,.69-.47,1.24Z"/>
        <path class="cls-2" d="M120.61,441.65c0,.45-.11,.83-.33,1.15-.22,.32-.54,.56-.96,.72-.43,.16-.94,.25-1.55,.25s-1.08-.09-1.5-.27c-.42-.18-.72-.4-.92-.67-.2-.27-.3-.54-.3-.81,0-.18,.06-.33,.19-.46,.13-.13,.29-.19,.48-.19,.17,0,.3,.04,.39,.12,.09,.08,.18,.2,.26,.35,.17,.29,.37,.5,.6,.65,.23,.14,.55,.21,.95,.21,.32,0,.59-.07,.8-.22,.21-.15,.31-.31,.31-.5,0-.28-.11-.49-.32-.62-.22-.13-.57-.26-1.07-.37-.56-.14-1.01-.28-1.36-.44-.35-.15-.63-.35-.84-.6-.21-.25-.31-.56-.31-.92,0-.32,.1-.63,.29-.92,.19-.29,.48-.52,.86-.69,.38-.17,.83-.26,1.37-.26,.42,0,.8,.04,1.13,.13,.33,.09,.61,.2,.84,.35,.22,.15,.39,.31,.51,.49,.12,.18,.17,.35,.17,.52,0,.19-.06,.34-.19,.46-.12,.12-.3,.18-.53,.18-.17,0-.31-.05-.42-.14-.12-.09-.25-.24-.4-.43-.12-.16-.27-.29-.43-.38-.17-.1-.39-.14-.68-.14s-.54,.06-.73,.19c-.19,.12-.29,.28-.29,.47,0,.17,.07,.31,.21,.42,.14,.11,.33,.2,.58,.27,.24,.07,.57,.16,1,.26,.5,.12,.91,.27,1.23,.44,.32,.17,.56,.37,.72,.6,.16,.23,.25,.5,.25,.79Z"/>
        <path class="cls-2" d="M122.27,436.43c-.23,0-.42-.07-.58-.21-.16-.14-.24-.33-.24-.59,0-.23,.08-.42,.25-.57,.16-.15,.36-.22,.57-.22s.4,.07,.56,.2c.16,.13,.24,.33,.24,.59s-.08,.44-.24,.58c-.16,.14-.35,.21-.56,.21Zm.8,1.67v4.68c0,.32-.08,.57-.23,.74-.15,.17-.35,.25-.59,.25s-.43-.08-.58-.26c-.15-.17-.22-.41-.22-.73v-4.64c0-.32,.07-.56,.22-.72,.15-.16,.34-.24,.58-.24s.43,.08,.59,.24c.15,.16,.23,.39,.23,.68Z"/>
        <path class="cls-2" d="M130.17,438.37v4.71c0,.54-.06,1-.17,1.39-.11,.39-.3,.71-.55,.96-.25,.25-.58,.44-.99,.56-.41,.12-.92,.18-1.53,.18-.56,0-1.06-.08-1.5-.23-.44-.16-.78-.36-1.01-.61-.24-.25-.36-.5-.36-.76,0-.2,.07-.36,.2-.48,.13-.13,.3-.19,.49-.19,.24,0,.45,.1,.62,.31,.09,.11,.18,.22,.27,.32,.09,.11,.2,.2,.31,.28,.11,.08,.25,.13,.41,.17,.16,.04,.34,.06,.55,.06,.42,0,.75-.06,.98-.18,.23-.12,.39-.28,.49-.49,.09-.21,.15-.43,.16-.67,.02-.24,.03-.62,.04-1.16-.25,.35-.54,.61-.86,.8-.33,.18-.72,.27-1.17,.27-.54,0-1.02-.14-1.42-.42-.41-.28-.72-.66-.93-1.16-.22-.5-.33-1.07-.33-1.73,0-.49,.07-.93,.2-1.32,.13-.39,.32-.72,.57-.99,.25-.27,.53-.47,.85-.61,.32-.14,.67-.2,1.06-.2,.46,0,.86,.09,1.19,.26,.34,.18,.65,.45,.94,.83v-.22c0-.28,.07-.5,.21-.65,.14-.15,.32-.23,.53-.23,.31,0,.52,.1,.62,.31,.1,.2,.15,.5,.15,.88Zm-4.7,2.05c0,.66,.14,1.15,.43,1.49,.29,.34,.66,.5,1.11,.5,.27,0,.52-.07,.76-.22,.24-.14,.43-.36,.59-.65,.15-.29,.23-.64,.23-1.06,0-.66-.15-1.18-.44-1.54-.29-.37-.67-.55-1.15-.55s-.83,.18-1.11,.53c-.28,.35-.42,.85-.42,1.5Z"/>
        <path class="cls-2" d="M132.74,438.08v.2c.28-.38,.6-.65,.93-.83,.34-.18,.73-.26,1.17-.26s.81,.09,1.15,.28c.34,.19,.59,.45,.75,.79,.11,.2,.18,.41,.21,.64,.03,.23,.05,.52,.05,.88v3.02c0,.32-.07,.57-.22,.74-.15,.17-.34,.25-.58,.25s-.44-.08-.59-.26c-.15-.17-.23-.41-.23-.73v-2.7c0-.53-.07-.94-.22-1.23-.15-.28-.44-.42-.89-.42-.29,0-.55,.09-.79,.26-.24,.17-.41,.41-.52,.71-.08,.24-.12,.69-.12,1.35v2.03c0,.33-.08,.58-.23,.74-.15,.16-.35,.25-.59,.25s-.43-.08-.58-.26c-.15-.17-.23-.41-.23-.73v-4.68c0-.31,.07-.54,.2-.69,.13-.15,.32-.23,.55-.23,.14,0,.27,.03,.39,.1,.11,.07,.21,.17,.28,.3,.07,.13,.1,.3,.1,.49Z"/>
        <path class="cls-2" d="M142.6,440.88h-3.17c0,.37,.08,.69,.22,.97,.14,.28,.34,.49,.58,.64,.24,.14,.5,.21,.79,.21,.19,0,.37-.02,.53-.07,.16-.05,.31-.12,.47-.21,.15-.1,.29-.2,.42-.31,.13-.11,.29-.26,.49-.45,.08-.07,.2-.11,.36-.11,.17,0,.3,.05,.4,.14,.1,.09,.15,.22,.15,.39,0,.15-.06,.32-.17,.51-.12,.2-.29,.38-.52,.56-.23,.18-.52,.33-.87,.45-.35,.12-.75,.18-1.21,.18-1.04,0-1.85-.3-2.43-.89-.58-.59-.87-1.4-.87-2.42,0-.48,.07-.92,.21-1.33,.14-.41,.35-.76,.62-1.05,.27-.29,.61-.52,1.01-.67,.4-.16,.84-.23,1.33-.23,.63,0,1.18,.13,1.63,.4,.45,.27,.79,.61,1.02,1.04,.23,.42,.34,.86,.34,1.29,0,.41-.12,.67-.35,.79-.23,.12-.56,.18-.99,.18Zm-3.17-.92h2.94c-.04-.55-.19-.97-.45-1.24-.26-.28-.6-.41-1.02-.41s-.74,.14-.99,.42c-.26,.28-.42,.69-.47,1.24Z"/>
        <path class="cls-2" d="M149.21,442.85v-.16c-.22,.25-.43,.45-.64,.61-.21,.16-.44,.28-.69,.36-.25,.08-.52,.12-.81,.12-.39,0-.75-.08-1.08-.25-.33-.16-.62-.4-.86-.7-.24-.3-.42-.66-.55-1.07-.12-.41-.19-.86-.19-1.34,0-1.01,.25-1.8,.74-2.37,.49-.57,1.15-.85,1.95-.85,.47,0,.86,.08,1.18,.24,.32,.16,.63,.41,.94,.74v-2.39c0-.33,.07-.58,.2-.75,.13-.17,.32-.26,.57-.26s.43,.08,.57,.23c.13,.16,.2,.39,.2,.69v7.15c0,.31-.07,.54-.21,.69-.14,.15-.33,.23-.55,.23s-.4-.08-.55-.24c-.14-.16-.22-.39-.22-.69Zm-3.19-2.38c0,.44,.07,.81,.2,1.12,.14,.31,.32,.54,.56,.7,.24,.16,.5,.24,.78,.24s.55-.07,.78-.22c.24-.15,.42-.38,.56-.68,.14-.31,.21-.69,.21-1.15,0-.43-.07-.8-.21-1.11-.14-.31-.33-.55-.57-.71-.24-.16-.5-.25-.79-.25s-.56,.08-.8,.25c-.23,.17-.41,.41-.54,.72-.13,.32-.19,.68-.19,1.1Z"/>
        <path class="cls-2" d="M155.83,435.7v2.48c.3-.32,.62-.56,.93-.73,.32-.17,.71-.25,1.18-.25,.54,0,1.01,.13,1.42,.38,.4,.26,.72,.63,.94,1.11,.22,.48,.34,1.06,.34,1.72,0,.49-.06,.94-.19,1.35-.12,.41-.31,.76-.54,1.06-.24,.3-.53,.53-.86,.7-.34,.16-.71,.25-1.12,.25-.25,0-.48-.03-.7-.09-.22-.06-.41-.14-.56-.23-.15-.1-.29-.2-.39-.3-.11-.1-.25-.26-.43-.46v.16c0,.3-.07,.54-.22,.69-.15,.16-.33,.23-.56,.23s-.41-.08-.55-.23c-.14-.16-.2-.39-.2-.69v-7.08c0-.33,.07-.58,.2-.74,.13-.17,.32-.25,.56-.25,.25,0,.44,.08,.58,.24,.13,.16,.2,.39,.2,.69Zm.08,4.81c0,.65,.15,1.14,.44,1.49,.29,.35,.68,.52,1.16,.52,.41,0,.76-.18,1.05-.53,.29-.35,.44-.86,.44-1.52,0-.43-.06-.8-.18-1.1-.12-.31-.3-.55-.52-.72-.23-.17-.49-.25-.79-.25s-.58,.08-.83,.25c-.24,.17-.43,.41-.57,.73-.14,.32-.21,.7-.21,1.14Z"/>
        <path class="cls-2" d="M162.74,443.98l.15-.36-1.99-5.02c-.12-.29-.18-.5-.18-.63,0-.14,.04-.27,.11-.39,.07-.12,.17-.21,.29-.28,.12-.07,.25-.11,.39-.11,.23,0,.41,.07,.53,.22,.12,.15,.22,.36,.31,.64l1.37,3.99,1.3-3.71c.1-.3,.2-.54,.28-.71,.08-.17,.17-.28,.26-.34,.09-.06,.22-.09,.39-.09,.12,0,.24,.03,.35,.1,.11,.07,.2,.15,.26,.26,.06,.11,.09,.23,.09,.35-.02,.07-.04,.18-.08,.32-.04,.14-.08,.28-.13,.42l-2.11,5.53c-.18,.49-.36,.87-.53,1.15-.17,.28-.4,.49-.69,.64-.29,.15-.67,.22-1.16,.22s-.83-.05-1.07-.15c-.24-.1-.36-.29-.36-.56,0-.19,.06-.33,.17-.43,.11-.1,.28-.15,.5-.15,.09,0,.17,.01,.26,.04,.1,.02,.19,.04,.27,.04,.19,0,.33-.03,.44-.08,.11-.06,.2-.15,.29-.29,.08-.14,.18-.34,.29-.6Z"/>
      </g>
      <g>
        <path class="cls-2" d="M186.21,437.33h.39v-.49c0-.51,.06-.91,.19-1.21,.13-.3,.35-.52,.65-.65,.31-.14,.73-.2,1.26-.2,.95,0,1.42,.23,1.42,.7,0,.15-.05,.28-.15,.38-.1,.11-.21,.16-.35,.16-.06,0-.17-.01-.33-.04-.15-.02-.28-.03-.39-.03-.29,0-.48,.09-.57,.26-.08,.17-.12,.42-.12,.74v.39h.4c.62,0,.93,.19,.93,.56,0,.26-.08,.43-.25,.5-.16,.07-.39,.11-.68,.11h-.4v4.29c0,.32-.08,.56-.23,.73-.15,.17-.35,.25-.59,.25-.23,0-.42-.08-.57-.25-.15-.17-.23-.41-.23-.73v-4.29h-.45c-.24,0-.43-.05-.56-.16-.13-.11-.2-.25-.2-.42,0-.39,.27-.58,.81-.58"/>
        <path class="cls-2" d="M191.52,441.43v1.35c0,.33-.08,.57-.23,.74-.15,.17-.35,.25-.59,.25s-.43-.08-.58-.25c-.15-.16-.23-.41-.23-.73v-4.51c0-.73,.26-1.09,.79-1.09,.27,0,.46,.08,.58,.26,.12,.17,.18,.42,.2,.76,.19-.33,.39-.58,.59-.76,.21-.17,.48-.26,.82-.26s.67,.08,.99,.26c.32,.17,.48,.4,.48,.68,0,.2-.07,.36-.2,.49-.14,.13-.28,.19-.44,.19-.06,0-.21-.04-.43-.11-.23-.07-.43-.11-.6-.11-.24,0-.43,.06-.58,.19-.15,.13-.27,.31-.35,.55-.08,.25-.14,.54-.17,.88-.03,.34-.04,.75-.04,1.24"/>
        <path class="cls-2" d="M198.97,440.88h-3.17c0,.37,.08,.69,.22,.97,.15,.28,.34,.49,.58,.64,.24,.14,.5,.21,.79,.21,.19,0,.37-.02,.53-.07,.16-.04,.32-.12,.47-.21,.15-.1,.29-.2,.41-.31,.13-.11,.29-.26,.49-.45,.08-.07,.2-.11,.36-.11,.17,0,.3,.05,.41,.14,.1,.09,.15,.22,.15,.39,0,.15-.06,.32-.17,.51-.12,.2-.29,.39-.52,.57-.23,.18-.52,.33-.87,.45-.35,.12-.75,.18-1.21,.18-1.04,0-1.85-.3-2.43-.89-.58-.6-.87-1.4-.87-2.42,0-.48,.07-.92,.22-1.33,.14-.41,.35-.76,.62-1.05,.27-.29,.61-.52,1.01-.67,.4-.16,.84-.23,1.33-.23,.63,0,1.18,.13,1.63,.4,.45,.26,.8,.61,1.02,1.03,.23,.43,.34,.86,.34,1.3,0,.41-.12,.67-.35,.79-.23,.12-.56,.18-.98,.18m-3.17-.92h2.94c-.04-.55-.19-.97-.45-1.24-.26-.28-.6-.41-1.03-.41-.4,0-.74,.14-.99,.42-.26,.28-.42,.69-.47,1.24"/>
        <path class="cls-2" d="M205.71,440.88h-3.17c0,.37,.08,.69,.22,.97,.14,.28,.34,.49,.58,.64,.24,.14,.5,.21,.79,.21,.19,0,.37-.02,.53-.07,.16-.04,.32-.12,.47-.21,.15-.1,.29-.2,.41-.31,.12-.11,.29-.26,.49-.45,.08-.07,.2-.11,.36-.11,.17,0,.3,.05,.41,.14,.1,.09,.15,.22,.15,.39,0,.15-.05,.32-.17,.51-.11,.2-.28,.39-.52,.57-.23,.18-.52,.33-.87,.45-.35,.12-.75,.18-1.21,.18-1.04,0-1.85-.3-2.43-.89-.58-.6-.87-1.4-.87-2.42,0-.48,.07-.92,.22-1.33,.14-.41,.35-.76,.62-1.05,.27-.29,.61-.52,1.01-.67,.4-.16,.84-.23,1.33-.23,.63,0,1.17,.13,1.63,.4,.45,.26,.79,.61,1.01,1.03,.22,.43,.34,.86,.34,1.3,0,.41-.12,.67-.35,.79-.23,.12-.56,.18-.98,.18m-3.17-.92h2.94c-.04-.55-.19-.97-.45-1.24-.26-.28-.6-.41-1.03-.41-.4,0-.73,.14-1,.42-.26,.28-.42,.69-.47,1.24"/>
        <path class="cls-2" d="M209.26,438.09v.19c.3-.38,.62-.65,.95-.83,.32-.18,.7-.27,1.11-.27,.5,0,.96,.13,1.38,.39,.42,.26,.75,.63,.99,1.13,.24,.5,.37,1.08,.37,1.76,0,.5-.07,.96-.21,1.38-.14,.42-.34,.77-.58,1.05-.25,.28-.53,.5-.87,.65-.34,.15-.69,.23-1.08,.23-.46,0-.85-.09-1.17-.28-.31-.18-.61-.46-.9-.82v2.43c0,.71-.26,1.07-.78,1.07-.31,0-.51-.09-.61-.27-.09-.19-.15-.45-.15-.81v-7c0-.31,.07-.54,.2-.69,.13-.15,.32-.23,.55-.23s.42,.08,.56,.23c.15,.16,.22,.38,.22,.68m3.18,2.35c0-.43-.07-.8-.2-1.1-.13-.31-.31-.54-.54-.7-.23-.16-.49-.25-.77-.25-.45,0-.82,.18-1.13,.53-.31,.35-.46,.87-.46,1.56,0,.64,.15,1.15,.46,1.5,.3,.36,.68,.54,1.13,.54,.27,0,.52-.08,.75-.23,.23-.16,.42-.39,.55-.7,.14-.31,.21-.69,.21-1.13"/>
        <path class="cls-2" d="M215.7,436.43c-.23,0-.42-.07-.58-.21-.16-.14-.24-.33-.24-.59,0-.23,.08-.42,.25-.57,.16-.15,.35-.22,.57-.22s.4,.07,.56,.2c.16,.14,.24,.33,.24,.59s-.08,.44-.24,.58c-.16,.14-.35,.21-.57,.21m.8,1.67v4.69c0,.32-.08,.57-.23,.73-.16,.17-.35,.25-.59,.25s-.43-.08-.58-.25c-.15-.17-.22-.42-.22-.73v-4.64c0-.32,.08-.56,.22-.72,.15-.17,.34-.24,.58-.24s.43,.08,.59,.24c.15,.16,.23,.39,.23,.67"/>
        <path class="cls-2" d="M221.73,443.03l-1.43-2.35-.88,.83v1.29c0,.31-.08,.55-.25,.72-.16,.17-.35,.25-.57,.25-.25,0-.45-.08-.59-.25-.14-.16-.21-.41-.21-.73v-6.91c0-.36,.07-.63,.21-.82,.14-.19,.34-.28,.6-.28s.45,.09,.59,.26c.15,.17,.22,.42,.22,.75v3.93l1.82-1.91c.23-.23,.4-.4,.52-.49,.12-.09,.26-.13,.43-.13,.2,0,.37,.06,.51,.19,.13,.13,.2,.29,.2,.48,0,.24-.22,.56-.66,.95l-.86,.79,1.66,2.61c.12,.2,.21,.34,.26,.44,.05,.1,.08,.2,.08,.29,0,.26-.07,.46-.21,.61-.14,.15-.33,.22-.55,.22-.2,0-.35-.05-.46-.16-.11-.11-.25-.3-.44-.58"/>
        <path class="cls-2" d="M225.25,443.77c-.24,0-.45-.08-.63-.24-.18-.16-.27-.38-.27-.67,0-.24,.09-.45,.26-.62,.17-.17,.38-.26,.63-.26s.46,.09,.64,.26c.17,.17,.26,.38,.26,.63,0,.28-.09,.5-.26,.66-.18,.16-.39,.24-.62,.24"/>
        <path class="cls-2" d="M233.31,441.77c0,.2-.06,.42-.18,.65-.12,.23-.31,.45-.55,.66-.25,.21-.56,.38-.93,.5-.38,.13-.8,.19-1.27,.19-1,0-1.79-.29-2.35-.88-.56-.58-.84-1.37-.84-2.35,0-.67,.13-1.25,.39-1.77,.25-.51,.63-.9,1.11-1.18,.49-.28,1.07-.42,1.75-.42,.42,0,.8,.06,1.16,.18,.35,.12,.65,.28,.89,.47,.24,.2,.43,.4,.56,.62,.13,.22,.19,.43,.19,.62s-.07,.36-.21,.49c-.15,.13-.32,.2-.52,.2-.14,0-.25-.04-.34-.1-.09-.07-.19-.18-.3-.34-.2-.3-.4-.53-.62-.67-.21-.15-.49-.23-.82-.23-.48,0-.86,.19-1.16,.56-.29,.37-.44,.89-.44,1.53,0,.31,.04,.59,.11,.84,.07,.25,.18,.47,.33,.65,.14,.18,.31,.32,.52,.41,.2,.1,.43,.14,.66,.14,.33,0,.6-.08,.84-.23,.23-.15,.44-.38,.62-.69,.1-.18,.2-.32,.32-.43,.11-.1,.26-.16,.42-.16,.2,0,.36,.08,.49,.23,.13,.15,.2,.31,.2,.48"/>
        <path class="cls-2" d="M240.3,440.48c0,.48-.08,.93-.22,1.34-.15,.41-.37,.76-.66,1.05-.28,.29-.63,.52-1.02,.67-.4,.15-.84,.23-1.34,.23s-.93-.08-1.33-.24c-.39-.16-.73-.38-1.02-.68-.29-.3-.51-.65-.66-1.05-.14-.4-.22-.85-.22-1.33s.08-.94,.22-1.35c.15-.41,.37-.76,.65-1.05,.28-.29,.62-.51,1.02-.67,.4-.16,.84-.23,1.33-.23s.94,.08,1.34,.24c.4,.16,.74,.38,1.03,.67,.29,.3,.5,.64,.65,1.04,.15,.41,.22,.85,.22,1.34m-1.63,0c0-.66-.15-1.18-.44-1.54-.29-.37-.68-.55-1.17-.55-.32,0-.6,.08-.84,.25-.24,.16-.43,.41-.56,.73-.13,.32-.2,.7-.2,1.12s.06,.79,.19,1.11c.13,.32,.31,.56,.55,.73,.24,.17,.52,.25,.85,.25,.49,0,.88-.18,1.17-.56,.29-.37,.44-.88,.44-1.53"/>
        <path class="cls-2" d="M246.49,440.6v2.15c0,.34-.08,.59-.23,.77-.16,.17-.36,.26-.61,.26s-.45-.08-.59-.26c-.15-.17-.23-.43-.23-.77v-2.58c0-.41-.01-.73-.04-.95-.03-.22-.1-.41-.23-.55-.12-.15-.32-.22-.58-.22-.53,0-.88,.18-1.05,.55-.17,.36-.25,.88-.25,1.57v2.19c0,.34-.08,.59-.23,.76-.16,.17-.35,.26-.6,.26s-.45-.09-.6-.26c-.16-.17-.23-.43-.23-.76v-4.64c0-.31,.07-.54,.21-.69,.14-.16,.33-.24,.56-.24s.41,.08,.56,.22c.15,.15,.22,.35,.22,.62v.15c.28-.33,.58-.58,.9-.74,.32-.16,.68-.24,1.07-.24s.76,.08,1.05,.24c.29,.16,.53,.41,.73,.74,.27-.33,.57-.58,.88-.74,.31-.16,.66-.24,1.04-.24,.44,0,.83,.09,1.15,.26,.32,.17,.56,.42,.72,.75,.14,.3,.21,.76,.21,1.39v3.16c0,.34-.08,.59-.23,.77-.15,.17-.36,.26-.61,.26s-.45-.09-.6-.26c-.16-.17-.23-.43-.23-.76v-2.73c0-.35-.01-.63-.04-.84-.03-.21-.11-.39-.24-.53-.13-.14-.33-.21-.6-.21-.21,0-.42,.07-.61,.19-.19,.12-.34,.3-.45,.51-.12,.27-.18,.76-.18,1.45"/>
      </g>
      <g>
        <path class="cls-2" d="M171.05,440.09s0,0,0-.01c0,0,0,0,0,.01Z"/>
        <path class="cls-2" d="M171.13,440.61h0c-.03-.15-.05-.29-.07-.44,.02,.15,.04,.29,.07,.44Z"/>
        <path class="cls-2" d="M171.66,442.11s0-.01-.01-.02c0,0,0,.01,.01,.02Z"/>
        <path class="cls-2" d="M171.61,442.01s-.03-.06-.04-.08c.01,.03,.03,.06,.04,.08Z"/>
        <path class="cls-2" d="M171.28,441.18c.08,.25,.17,.49,.29,.72-.11-.24-.21-.48-.28-.72h0Z"/>
        <path class="cls-2" d="M177.32,433.88c.31,0,.54,.02,.81,.07l.07-.48s-.73-.23-1.69-.15l-.08-.26c.3-.06,.52-.33,.52-.65,0-.36-.3-.66-.66-.66s-.66,.29-.66,.66c0,.32,.22,.58,.52,.65l.08,.29c-1.02,.14-1.83,.54-1.83,.54l.14,.44c.62-.21,1.15-.33,1.64-.38,.48-.05,.83-.07,1.13-.07Z"/>
        <path class="cls-2" d="M171.65,436.29h0s.05-.07,.07-.09l-.2-.14-.3-.22s-.5,.47-.88,1.28c-.02-.03-.03-.05-.06-.07-.11-.12-.27-.19-.47-.18h0c-.12,0-.21-.04-.27-.09,.06-.07,.09-.16,.09-.26,0-.23-.19-.42-.42-.42s-.42,.19-.42,.42,.19,.42,.42,.42c.04,0,.07,0,.1-.01,.1,.11,.27,.21,.5,.21,.12,0,.21,.03,.27,.1,.07,.08,.09,.18,.1,.27,0,0,0,0,0,0-.27,.74-.19,1.67-.19,1.67l.66,.03c.01-.34,.06-.93,.23-1.39,.33-.91,.74-1.47,.76-1.5Z"/>
        <path class="cls-2" d="M183.07,434.43c-.23,0-.42,.19-.42,.42,0,.04,0,.07,.01,.1-.11,.1-.21,.27-.21,.51,0,.12-.03,.21-.1,.27-.05,.05-.12,.07-.18,.09-.49-.69-1.1-1.11-1.1-1.11l-.47,.51c.36,.33,.72,.73,1.08,1.24,.25,.35,.5,.81,.71,1.26l.64-.3s-.29-.72-.7-1.37c.07-.03,.14-.06,.21-.12,.13-.11,.19-.27,.18-.47,0-.13,.04-.22,.09-.28,.07,.05,.16,.09,.26,.09,.23,0,.42-.19,.42-.42s-.19-.42-.42-.42Z"/>
        <path class="cls-2" d="M181.41,440.18c-.88,.43-2.33,1-4.24,1.26-.75,.1-1.47,.14-2.14,.14-.87,0-1.64-.06-2.23-.14-.67-.08-1.2-.19-1.52-.26,.08,.24,.17,.49,.28,.72,0,0,0,.01,0,.02,.01,.03,.03,.06,.04,.08,.01,.03,.03,.05,.04,.08,0,0,0,.01,.01,.02,.19,.36,.42,.68,.68,.97,.9,.98,1.82,1.14,1.83,1.14h.01s.01,0,.01,0c0,0,.82,.27,2.06,.27s2.41-.25,3.55-.73c.84-.43,1.64-1.09,2.03-1.67,.31-.45,.53-.93,.66-1.43,.07-.27,.12-.69,.09-1.14-.25,.17-.64,.4-1.17,.66Z"/>
        <path class="cls-2" d="M171.94,436.5s-.41,.58-.71,1.41c-.23,.62-.22,1.53-.22,1.54h0c0,.21,.01,.42,.04,.63,0,0,0,0,0,.01,0,.03,0,.05,0,.08,.02,.14,.04,.29,.07,.44,.44,.11,3.05,.72,5.97,.31,1.83-.25,3.22-.8,4.06-1.2,.7-.34,1.15-.65,1.32-.77-.17-.64-.65-1.65-1.09-2.28-1.25-1.79-2.6-2.25-3.3-2.36-.26-.04-.48-.07-.78-.07-.28,0-.63,.02-1.09,.07-.46,.05-.98,.17-1.58,.37-.84,.28-1.6,.72-2.2,1.28l-.02,.02c-.09,.08-.27,.25-.49,.53Zm7.67-.42c.6,0,1.09,.49,1.09,1.09s-.49,1.09-1.09,1.09-1.09-.49-1.09-1.09,.49-1.09,1.09-1.09Zm-5.15-.04c.97,0,1.76,.79,1.76,1.76s-.79,1.76-1.76,1.76-1.76-.79-1.76-1.76,.79-1.76,1.76-1.76Z"/>
      </g>
    </g>
  </g>
</svg>