<svg width="200" height="50" viewBox="0 0 200 50" fill="none" xmlns="http://www.w3.org/2000/svg">
<path d="M0 25C0 11.1929 11.1929 0 25 0H175C188.807 0 200 11.1929 200 25V25C200 38.8071 188.807 50 175 50H25C11.1929 50 0 38.8071 0 25V25Z" fill="#4D73A3"/>
<path d="M40.642 31H38.392L42.4886 19.3636H45.0909L49.1932 31H46.9432L43.8352 21.75H43.7443L40.642 31ZM40.7159 26.4375H46.8523V28.1307H40.7159V26.4375ZM58.192 24.5795L56.317 24.7841C56.264 24.5947 56.1712 24.4167 56.0386 24.25C55.9098 24.0833 55.7356 23.9489 55.5159 23.8466C55.2962 23.7443 55.0273 23.6932 54.7091 23.6932C54.2811 23.6932 53.9212 23.786 53.6295 23.9716C53.3417 24.1572 53.1996 24.3977 53.2034 24.6932C53.1996 24.947 53.2924 25.1534 53.4818 25.3125C53.675 25.4716 53.9932 25.6023 54.4364 25.7045L55.925 26.0227C56.7508 26.2008 57.3644 26.483 57.7659 26.8693C58.1712 27.2557 58.3758 27.7614 58.3795 28.3864C58.3758 28.9356 58.2148 29.4205 57.8966 29.8409C57.5822 30.2576 57.1447 30.5833 56.5841 30.8182C56.0235 31.053 55.3795 31.1705 54.6523 31.1705C53.5841 31.1705 52.7242 30.947 52.0727 30.5C51.4212 30.0492 51.033 29.4223 50.908 28.6193L52.9136 28.4261C53.0045 28.8201 53.1977 29.1174 53.4932 29.3182C53.7886 29.5189 54.1731 29.6193 54.6466 29.6193C55.1352 29.6193 55.5273 29.5189 55.8227 29.3182C56.122 29.1174 56.2716 28.8693 56.2716 28.5739C56.2716 28.3239 56.175 28.1174 55.9818 27.9545C55.7924 27.7917 55.497 27.6667 55.0955 27.5795L53.6068 27.267C52.7697 27.0928 52.1504 26.7992 51.7489 26.3864C51.3473 25.9697 51.1485 25.4432 51.1523 24.8068C51.1485 24.2689 51.2943 23.803 51.5898 23.4091C51.889 23.0114 52.3038 22.7045 52.8341 22.4886C53.3682 22.2689 53.9837 22.1591 54.6807 22.1591C55.7034 22.1591 56.5083 22.3769 57.0955 22.8125C57.6864 23.2481 58.0519 23.8371 58.192 24.5795ZM62.7506 28.2614L62.7449 25.7784H63.0744L66.2108 22.2727H68.6142L64.7563 26.5682H64.3301L62.7506 28.2614ZM60.8756 31V19.3636H62.9324V31H60.8756ZM66.3528 31L63.5119 27.0284L64.8983 25.5795L68.8131 31H66.3528ZM78.0651 31.1761C77.512 31.1761 77.0139 31.0777 76.5707 30.8807C76.1313 30.6799 75.7829 30.3845 75.5253 29.9943C75.2715 29.6042 75.1446 29.1231 75.1446 28.5511C75.1446 28.0587 75.2355 27.6515 75.4173 27.3295C75.5991 27.0076 75.8473 26.75 76.1616 26.5568C76.476 26.3636 76.8302 26.2178 77.2241 26.1193C77.6219 26.017 78.0329 25.9432 78.4571 25.8977C78.9685 25.8447 79.3832 25.7973 79.7014 25.7557C80.0196 25.7102 80.2507 25.642 80.3946 25.5511C80.5423 25.4564 80.6162 25.3106 80.6162 25.1136V25.0795C80.6162 24.6515 80.4893 24.3201 80.2355 24.0852C79.9817 23.8504 79.6162 23.733 79.1389 23.733C78.6351 23.733 78.2355 23.8428 77.9401 24.0625C77.6484 24.2822 77.4514 24.5417 77.3491 24.8409L75.4287 24.5682C75.5802 24.0379 75.8302 23.5947 76.1787 23.2386C76.5272 22.8788 76.9533 22.6098 77.4571 22.4318C77.9609 22.25 78.5177 22.1591 79.1276 22.1591C79.548 22.1591 79.9666 22.2083 80.3832 22.3068C80.7999 22.4053 81.1806 22.5682 81.5253 22.7955C81.87 23.0189 82.1465 23.3239 82.3548 23.7102C82.567 24.0966 82.673 24.5795 82.673 25.1591V31H80.6957V29.8011H80.6276C80.5026 30.0436 80.3264 30.2708 80.0991 30.483C79.8757 30.6913 79.5935 30.8598 79.2526 30.9886C78.9154 31.1136 78.5196 31.1761 78.0651 31.1761ZM78.5991 29.6648C79.012 29.6648 79.37 29.5833 79.673 29.4205C79.976 29.2538 80.209 29.0341 80.3719 28.7614C80.5385 28.4886 80.6219 28.1913 80.6219 27.8693V26.8409C80.5575 26.8939 80.4476 26.9432 80.2923 26.9886C80.1408 27.0341 79.9704 27.0739 79.781 27.108C79.5916 27.142 79.4041 27.1723 79.2185 27.1989C79.0329 27.2254 78.8719 27.2481 78.7355 27.267C78.4287 27.3087 78.1541 27.3769 77.9116 27.4716C77.6692 27.5663 77.4779 27.6989 77.3378 27.8693C77.1976 28.036 77.1276 28.2519 77.1276 28.517C77.1276 28.8958 77.2658 29.1818 77.5423 29.375C77.8188 29.5682 78.1711 29.6648 78.5991 29.6648ZM94.7361 27.0909H96.6452L97.7759 28.5568L98.5827 29.5114L100.52 32H98.4747L97.1565 30.3295L96.594 29.5341L94.7361 27.0909ZM100.799 25.1818C100.799 26.4356 100.564 27.5095 100.094 28.4034C99.6281 29.2936 98.9918 29.9754 98.1849 30.4489C97.3819 30.9223 96.4709 31.1591 95.452 31.1591C94.433 31.1591 93.5202 30.9223 92.7134 30.4489C91.9103 29.9716 91.274 29.2879 90.8043 28.3977C90.3384 27.5038 90.1054 26.4318 90.1054 25.1818C90.1054 23.928 90.3384 22.8561 90.8043 21.9659C91.274 21.072 91.9103 20.3883 92.7134 19.9148C93.5202 19.4413 94.433 19.2045 95.452 19.2045C96.4709 19.2045 97.3819 19.4413 98.1849 19.9148C98.9918 20.3883 99.6281 21.072 100.094 21.9659C100.564 22.8561 100.799 23.928 100.799 25.1818ZM98.6793 25.1818C98.6793 24.2992 98.541 23.5549 98.2645 22.9489C97.9918 22.339 97.613 21.8788 97.1281 21.5682C96.6433 21.2538 96.0846 21.0966 95.452 21.0966C94.8194 21.0966 94.2607 21.2538 93.7759 21.5682C93.291 21.8788 92.9103 22.339 92.6338 22.9489C92.3611 23.5549 92.2247 24.2992 92.2247 25.1818C92.2247 26.0644 92.3611 26.8106 92.6338 27.4205C92.9103 28.0265 93.291 28.4867 93.7759 28.8011C94.2607 29.1117 94.8194 29.267 95.452 29.267C96.0846 29.267 96.6433 29.1117 97.1281 28.8011C97.613 28.4867 97.9918 28.0265 98.2645 27.4205C98.541 26.8106 98.6793 26.0644 98.6793 25.1818ZM109.079 27.3295V22.2727H111.136V31H109.141V29.4489H109.05C108.853 29.9375 108.529 30.3371 108.079 30.6477C107.632 30.9583 107.081 31.1136 106.425 31.1136C105.853 31.1136 105.348 30.9867 104.908 30.733C104.473 30.4754 104.132 30.1023 103.886 29.6136C103.639 29.1212 103.516 28.5265 103.516 27.8295V22.2727H105.573V27.5114C105.573 28.0644 105.725 28.5038 106.028 28.8295C106.331 29.1553 106.728 29.3182 107.221 29.3182C107.524 29.3182 107.817 29.2443 108.101 29.0966C108.386 28.9489 108.618 28.7292 108.8 28.4375C108.986 28.142 109.079 27.7727 109.079 27.3295ZM117.914 31.1705C117.039 31.1705 116.284 30.9886 115.647 30.625C115.015 30.2576 114.528 29.7386 114.187 29.0682C113.846 28.3939 113.676 27.6004 113.676 26.6875C113.676 25.7898 113.846 25.0019 114.187 24.3239C114.532 23.642 115.013 23.1117 115.63 22.733C116.248 22.3504 116.973 22.1591 117.806 22.1591C118.344 22.1591 118.852 22.2462 119.329 22.4205C119.81 22.5909 120.234 22.8561 120.602 23.2159C120.973 23.5758 121.265 24.0341 121.477 24.5909C121.689 25.1439 121.795 25.803 121.795 26.5682V27.1989H114.641V25.8125H119.823C119.82 25.4186 119.734 25.0682 119.568 24.7614C119.401 24.4508 119.168 24.2064 118.869 24.0284C118.573 23.8504 118.229 23.7614 117.835 23.7614C117.414 23.7614 117.045 23.8636 116.727 24.0682C116.409 24.2689 116.16 24.5341 115.982 24.8636C115.808 25.1894 115.719 25.5473 115.715 25.9375V27.1477C115.715 27.6553 115.808 28.0909 115.994 28.4545C116.179 28.8144 116.439 29.0909 116.772 29.2841C117.105 29.4735 117.496 29.5682 117.943 29.5682C118.242 29.5682 118.513 29.5265 118.755 29.4432C118.998 29.3561 119.208 29.2292 119.386 29.0625C119.564 28.8958 119.698 28.6894 119.789 28.4432L121.71 28.6591C121.588 29.1667 121.357 29.6098 121.016 29.9886C120.679 30.3636 120.248 30.6553 119.721 30.8636C119.195 31.0682 118.592 31.1705 117.914 31.1705ZM131.233 24.5795L129.358 24.7841C129.305 24.5947 129.212 24.4167 129.079 24.25C128.95 24.0833 128.776 23.9489 128.557 23.8466C128.337 23.7443 128.068 23.6932 127.75 23.6932C127.322 23.6932 126.962 23.786 126.67 23.9716C126.382 24.1572 126.24 24.3977 126.244 24.6932C126.24 24.947 126.333 25.1534 126.522 25.3125C126.716 25.4716 127.034 25.6023 127.477 25.7045L128.966 26.0227C129.791 26.2008 130.405 26.483 130.807 26.8693C131.212 27.2557 131.416 27.7614 131.42 28.3864C131.416 28.9356 131.255 29.4205 130.937 29.8409C130.623 30.2576 130.185 30.5833 129.625 30.8182C129.064 31.053 128.42 31.1705 127.693 31.1705C126.625 31.1705 125.765 30.947 125.113 30.5C124.462 30.0492 124.074 29.4223 123.949 28.6193L125.954 28.4261C126.045 28.8201 126.238 29.1174 126.534 29.3182C126.829 29.5189 127.214 29.6193 127.687 29.6193C128.176 29.6193 128.568 29.5189 128.863 29.3182C129.163 29.1174 129.312 28.8693 129.312 28.5739C129.312 28.3239 129.216 28.1174 129.022 27.9545C128.833 27.7917 128.538 27.6667 128.136 27.5795L126.647 27.267C125.81 27.0928 125.191 26.7992 124.789 26.3864C124.388 25.9697 124.189 25.4432 124.193 24.8068C124.189 24.2689 124.335 23.803 124.63 23.4091C124.93 23.0114 125.344 22.7045 125.875 22.4886C126.409 22.2689 127.024 22.1591 127.721 22.1591C128.744 22.1591 129.549 22.3769 130.136 22.8125C130.727 23.2481 131.093 23.8371 131.233 24.5795ZM138.274 22.2727V23.8636H133.257V22.2727H138.274ZM134.496 20.1818H136.553V28.375C136.553 28.6515 136.594 28.8636 136.678 29.0114C136.765 29.1553 136.878 29.2538 137.018 29.3068C137.159 29.3598 137.314 29.3864 137.484 29.3864C137.613 29.3864 137.731 29.3769 137.837 29.358C137.946 29.339 138.03 29.322 138.087 29.3068L138.433 30.9148C138.323 30.9527 138.166 30.9943 137.962 31.0398C137.761 31.0852 137.515 31.1117 137.223 31.1193C136.708 31.1345 136.244 31.0568 135.831 30.8864C135.418 30.7121 135.09 30.4432 134.848 30.0795C134.609 29.7159 134.492 29.2614 134.496 28.7159V20.1818ZM140.794 31V22.2727H142.851V31H140.794ZM141.828 21.0341C141.503 21.0341 141.222 20.9261 140.988 20.7102C140.753 20.4905 140.635 20.2273 140.635 19.9205C140.635 19.6098 140.753 19.3466 140.988 19.1307C141.222 18.911 141.503 18.8011 141.828 18.8011C142.158 18.8011 142.438 18.911 142.669 19.1307C142.904 19.3466 143.022 19.6098 143.022 19.9205C143.022 20.2273 142.904 20.4905 142.669 20.7102C142.438 20.9261 142.158 21.0341 141.828 21.0341ZM149.573 31.1705C148.721 31.1705 147.982 30.983 147.357 30.608C146.732 30.233 146.247 29.7083 145.903 29.0341C145.562 28.3598 145.391 27.572 145.391 26.6705C145.391 25.7689 145.562 24.9792 145.903 24.3011C146.247 23.6231 146.732 23.0966 147.357 22.7216C147.982 22.3466 148.721 22.1591 149.573 22.1591C150.425 22.1591 151.164 22.3466 151.789 22.7216C152.414 23.0966 152.897 23.6231 153.238 24.3011C153.582 24.9792 153.755 25.7689 153.755 26.6705C153.755 27.572 153.582 28.3598 153.238 29.0341C152.897 29.7083 152.414 30.233 151.789 30.608C151.164 30.983 150.425 31.1705 149.573 31.1705ZM149.584 29.5227C150.046 29.5227 150.433 29.3958 150.743 29.142C151.054 28.8845 151.285 28.5398 151.437 28.108C151.592 27.6761 151.67 27.1951 151.67 26.6648C151.67 26.1307 151.592 25.6477 151.437 25.2159C151.285 24.7803 151.054 24.4337 150.743 24.1761C150.433 23.9186 150.046 23.7898 149.584 23.7898C149.111 23.7898 148.717 23.9186 148.403 24.1761C148.092 24.4337 147.859 24.7803 147.704 25.2159C147.552 25.6477 147.476 26.1307 147.476 26.6648C147.476 27.1951 147.552 27.6761 147.704 28.108C147.859 28.5398 148.092 28.8845 148.403 29.142C148.717 29.3958 149.111 29.5227 149.584 29.5227ZM158.357 25.8864V31H156.301V22.2727H158.266V23.7557H158.369C158.57 23.267 158.89 22.8788 159.329 22.5909C159.772 22.303 160.32 22.1591 160.971 22.1591C161.573 22.1591 162.098 22.2879 162.545 22.5455C162.996 22.803 163.344 23.1761 163.59 23.6648C163.84 24.1534 163.963 24.7462 163.96 25.4432V31H161.903V25.7614C161.903 25.178 161.751 24.7216 161.448 24.392C161.149 24.0625 160.734 23.8977 160.204 23.8977C159.844 23.8977 159.524 23.9773 159.244 24.1364C158.967 24.2917 158.749 24.517 158.59 24.8125C158.435 25.108 158.357 25.4659 158.357 25.8864Z" fill="white" fill-opacity="0.64"/>
</svg>
