<svg width="200" height="55" viewBox="0 0 200 55" fill="none" xmlns="http://www.w3.org/2000/svg">
<rect y="5" width="200" height="50" rx="25" fill="#4D73A3"/>
<rect width="200" height="50" rx="25" fill="#4781CA"/>
<path d="M40.642 33H38.392L42.4886 21.3636H45.0909L49.1932 33H46.9432L43.8352 23.75H43.7443L40.642 33ZM40.7159 28.4375H46.8523V30.1307H40.7159V28.4375ZM58.192 26.5795L56.317 26.7841C56.264 26.5947 56.1712 26.4167 56.0386 26.25C55.9098 26.0833 55.7356 25.9489 55.5159 25.8466C55.2962 25.7443 55.0273 25.6932 54.7091 25.6932C54.2811 25.6932 53.9212 25.786 53.6295 25.9716C53.3417 26.1572 53.1996 26.3977 53.2034 26.6932C53.1996 26.947 53.2924 27.1534 53.4818 27.3125C53.675 27.4716 53.9932 27.6023 54.4364 27.7045L55.925 28.0227C56.7508 28.2008 57.3644 28.483 57.7659 28.8693C58.1712 29.2557 58.3758 29.7614 58.3795 30.3864C58.3758 30.9356 58.2148 31.4205 57.8966 31.8409C57.5822 32.2576 57.1447 32.5833 56.5841 32.8182C56.0235 33.053 55.3795 33.1705 54.6523 33.1705C53.5841 33.1705 52.7242 32.947 52.0727 32.5C51.4212 32.0492 51.033 31.4223 50.908 30.6193L52.9136 30.4261C53.0045 30.8201 53.1977 31.1174 53.4932 31.3182C53.7886 31.5189 54.1731 31.6193 54.6466 31.6193C55.1352 31.6193 55.5273 31.5189 55.8227 31.3182C56.122 31.1174 56.2716 30.8693 56.2716 30.5739C56.2716 30.3239 56.175 30.1174 55.9818 29.9545C55.7924 29.7917 55.497 29.6667 55.0955 29.5795L53.6068 29.267C52.7697 29.0928 52.1504 28.7992 51.7489 28.3864C51.3473 27.9697 51.1485 27.4432 51.1523 26.8068C51.1485 26.2689 51.2943 25.803 51.5898 25.4091C51.889 25.0114 52.3038 24.7045 52.8341 24.4886C53.3682 24.2689 53.9837 24.1591 54.6807 24.1591C55.7034 24.1591 56.5083 24.3769 57.0955 24.8125C57.6864 25.2481 58.0519 25.8371 58.192 26.5795ZM62.7506 30.2614L62.7449 27.7784H63.0744L66.2108 24.2727H68.6142L64.7563 28.5682H64.3301L62.7506 30.2614ZM60.8756 33V21.3636H62.9324V33H60.8756ZM66.3528 33L63.5119 29.0284L64.8983 27.5795L68.8131 33H66.3528ZM78.0651 33.1761C77.512 33.1761 77.0139 33.0777 76.5707 32.8807C76.1313 32.6799 75.7829 32.3845 75.5253 31.9943C75.2715 31.6042 75.1446 31.1231 75.1446 30.5511C75.1446 30.0587 75.2355 29.6515 75.4173 29.3295C75.5991 29.0076 75.8473 28.75 76.1616 28.5568C76.476 28.3636 76.8302 28.2178 77.2241 28.1193C77.6219 28.017 78.0329 27.9432 78.4571 27.8977C78.9685 27.8447 79.3832 27.7973 79.7014 27.7557C80.0196 27.7102 80.2507 27.642 80.3946 27.5511C80.5423 27.4564 80.6162 27.3106 80.6162 27.1136V27.0795C80.6162 26.6515 80.4893 26.3201 80.2355 26.0852C79.9817 25.8504 79.6162 25.733 79.1389 25.733C78.6351 25.733 78.2355 25.8428 77.9401 26.0625C77.6484 26.2822 77.4514 26.5417 77.3491 26.8409L75.4287 26.5682C75.5802 26.0379 75.8302 25.5947 76.1787 25.2386C76.5272 24.8788 76.9533 24.6098 77.4571 24.4318C77.9609 24.25 78.5177 24.1591 79.1276 24.1591C79.548 24.1591 79.9666 24.2083 80.3832 24.3068C80.7999 24.4053 81.1806 24.5682 81.5253 24.7955C81.87 25.0189 82.1465 25.3239 82.3548 25.7102C82.567 26.0966 82.673 26.5795 82.673 27.1591V33H80.6957V31.8011H80.6276C80.5026 32.0436 80.3264 32.2708 80.0991 32.483C79.8757 32.6913 79.5935 32.8598 79.2526 32.9886C78.9154 33.1136 78.5196 33.1761 78.0651 33.1761ZM78.5991 31.6648C79.012 31.6648 79.37 31.5833 79.673 31.4205C79.976 31.2538 80.209 31.0341 80.3719 30.7614C80.5385 30.4886 80.6219 30.1913 80.6219 29.8693V28.8409C80.5575 28.8939 80.4476 28.9432 80.2923 28.9886C80.1408 29.0341 79.9704 29.0739 79.781 29.108C79.5916 29.142 79.4041 29.1723 79.2185 29.1989C79.0329 29.2254 78.8719 29.2481 78.7355 29.267C78.4287 29.3087 78.1541 29.3769 77.9116 29.4716C77.6692 29.5663 77.4779 29.6989 77.3378 29.8693C77.1976 30.036 77.1276 30.2519 77.1276 30.517C77.1276 30.8958 77.2658 31.1818 77.5423 31.375C77.8188 31.5682 78.1711 31.6648 78.5991 31.6648ZM94.7361 29.0909H96.6452L97.7759 30.5568L98.5827 31.5114L100.52 34H98.4747L97.1565 32.3295L96.594 31.5341L94.7361 29.0909ZM100.799 27.1818C100.799 28.4356 100.564 29.5095 100.094 30.4034C99.6281 31.2936 98.9918 31.9754 98.1849 32.4489C97.3819 32.9223 96.4709 33.1591 95.452 33.1591C94.433 33.1591 93.5202 32.9223 92.7134 32.4489C91.9103 31.9716 91.274 31.2879 90.8043 30.3977C90.3384 29.5038 90.1054 28.4318 90.1054 27.1818C90.1054 25.928 90.3384 24.8561 90.8043 23.9659C91.274 23.072 91.9103 22.3883 92.7134 21.9148C93.5202 21.4413 94.433 21.2045 95.452 21.2045C96.4709 21.2045 97.3819 21.4413 98.1849 21.9148C98.9918 22.3883 99.6281 23.072 100.094 23.9659C100.564 24.8561 100.799 25.928 100.799 27.1818ZM98.6793 27.1818C98.6793 26.2992 98.541 25.5549 98.2645 24.9489C97.9918 24.339 97.613 23.8788 97.1281 23.5682C96.6433 23.2538 96.0846 23.0966 95.452 23.0966C94.8194 23.0966 94.2607 23.2538 93.7759 23.5682C93.291 23.8788 92.9103 24.339 92.6338 24.9489C92.3611 25.5549 92.2247 26.2992 92.2247 27.1818C92.2247 28.0644 92.3611 28.8106 92.6338 29.4205C92.9103 30.0265 93.291 30.4867 93.7759 30.8011C94.2607 31.1117 94.8194 31.267 95.452 31.267C96.0846 31.267 96.6433 31.1117 97.1281 30.8011C97.613 30.4867 97.9918 30.0265 98.2645 29.4205C98.541 28.8106 98.6793 28.0644 98.6793 27.1818ZM109.079 29.3295V24.2727H111.136V33H109.141V31.4489H109.05C108.853 31.9375 108.529 32.3371 108.079 32.6477C107.632 32.9583 107.081 33.1136 106.425 33.1136C105.853 33.1136 105.348 32.9867 104.908 32.733C104.473 32.4754 104.132 32.1023 103.886 31.6136C103.639 31.1212 103.516 30.5265 103.516 29.8295V24.2727H105.573V29.5114C105.573 30.0644 105.725 30.5038 106.028 30.8295C106.331 31.1553 106.728 31.3182 107.221 31.3182C107.524 31.3182 107.817 31.2443 108.101 31.0966C108.386 30.9489 108.618 30.7292 108.8 30.4375C108.986 30.142 109.079 29.7727 109.079 29.3295ZM117.914 33.1705C117.039 33.1705 116.284 32.9886 115.647 32.625C115.015 32.2576 114.528 31.7386 114.187 31.0682C113.846 30.3939 113.676 29.6004 113.676 28.6875C113.676 27.7898 113.846 27.0019 114.187 26.3239C114.532 25.642 115.013 25.1117 115.63 24.733C116.248 24.3504 116.973 24.1591 117.806 24.1591C118.344 24.1591 118.852 24.2462 119.329 24.4205C119.81 24.5909 120.234 24.8561 120.602 25.2159C120.973 25.5758 121.265 26.0341 121.477 26.5909C121.689 27.1439 121.795 27.803 121.795 28.5682V29.1989H114.641V27.8125H119.823C119.82 27.4186 119.734 27.0682 119.568 26.7614C119.401 26.4508 119.168 26.2064 118.869 26.0284C118.573 25.8504 118.229 25.7614 117.835 25.7614C117.414 25.7614 117.045 25.8636 116.727 26.0682C116.409 26.2689 116.16 26.5341 115.982 26.8636C115.808 27.1894 115.719 27.5473 115.715 27.9375V29.1477C115.715 29.6553 115.808 30.0909 115.994 30.4545C116.179 30.8144 116.439 31.0909 116.772 31.2841C117.105 31.4735 117.496 31.5682 117.943 31.5682C118.242 31.5682 118.513 31.5265 118.755 31.4432C118.998 31.3561 119.208 31.2292 119.386 31.0625C119.564 30.8958 119.698 30.6894 119.789 30.4432L121.71 30.6591C121.588 31.1667 121.357 31.6098 121.016 31.9886C120.679 32.3636 120.248 32.6553 119.721 32.8636C119.195 33.0682 118.592 33.1705 117.914 33.1705ZM131.233 26.5795L129.358 26.7841C129.305 26.5947 129.212 26.4167 129.079 26.25C128.95 26.0833 128.776 25.9489 128.557 25.8466C128.337 25.7443 128.068 25.6932 127.75 25.6932C127.322 25.6932 126.962 25.786 126.67 25.9716C126.382 26.1572 126.24 26.3977 126.244 26.6932C126.24 26.947 126.333 27.1534 126.522 27.3125C126.716 27.4716 127.034 27.6023 127.477 27.7045L128.966 28.0227C129.791 28.2008 130.405 28.483 130.807 28.8693C131.212 29.2557 131.416 29.7614 131.42 30.3864C131.416 30.9356 131.255 31.4205 130.937 31.8409C130.623 32.2576 130.185 32.5833 129.625 32.8182C129.064 33.053 128.42 33.1705 127.693 33.1705C126.625 33.1705 125.765 32.947 125.113 32.5C124.462 32.0492 124.074 31.4223 123.949 30.6193L125.954 30.4261C126.045 30.8201 126.238 31.1174 126.534 31.3182C126.829 31.5189 127.214 31.6193 127.687 31.6193C128.176 31.6193 128.568 31.5189 128.863 31.3182C129.163 31.1174 129.312 30.8693 129.312 30.5739C129.312 30.3239 129.216 30.1174 129.022 29.9545C128.833 29.7917 128.538 29.6667 128.136 29.5795L126.647 29.267C125.81 29.0928 125.191 28.7992 124.789 28.3864C124.388 27.9697 124.189 27.4432 124.193 26.8068C124.189 26.2689 124.335 25.803 124.63 25.4091C124.93 25.0114 125.344 24.7045 125.875 24.4886C126.409 24.2689 127.024 24.1591 127.721 24.1591C128.744 24.1591 129.549 24.3769 130.136 24.8125C130.727 25.2481 131.093 25.8371 131.233 26.5795ZM138.274 24.2727V25.8636H133.257V24.2727H138.274ZM134.496 22.1818H136.553V30.375C136.553 30.6515 136.594 30.8636 136.678 31.0114C136.765 31.1553 136.878 31.2538 137.018 31.3068C137.159 31.3598 137.314 31.3864 137.484 31.3864C137.613 31.3864 137.731 31.3769 137.837 31.358C137.946 31.339 138.03 31.322 138.087 31.3068L138.433 32.9148C138.323 32.9527 138.166 32.9943 137.962 33.0398C137.761 33.0852 137.515 33.1117 137.223 33.1193C136.708 33.1345 136.244 33.0568 135.831 32.8864C135.418 32.7121 135.09 32.4432 134.848 32.0795C134.609 31.7159 134.492 31.2614 134.496 30.7159V22.1818ZM140.794 33V24.2727H142.851V33H140.794ZM141.828 23.0341C141.503 23.0341 141.222 22.9261 140.988 22.7102C140.753 22.4905 140.635 22.2273 140.635 21.9205C140.635 21.6098 140.753 21.3466 140.988 21.1307C141.222 20.911 141.503 20.8011 141.828 20.8011C142.158 20.8011 142.438 20.911 142.669 21.1307C142.904 21.3466 143.022 21.6098 143.022 21.9205C143.022 22.2273 142.904 22.4905 142.669 22.7102C142.438 22.9261 142.158 23.0341 141.828 23.0341ZM149.573 33.1705C148.721 33.1705 147.982 32.983 147.357 32.608C146.732 32.233 146.247 31.7083 145.903 31.0341C145.562 30.3598 145.391 29.572 145.391 28.6705C145.391 27.7689 145.562 26.9792 145.903 26.3011C146.247 25.6231 146.732 25.0966 147.357 24.7216C147.982 24.3466 148.721 24.1591 149.573 24.1591C150.425 24.1591 151.164 24.3466 151.789 24.7216C152.414 25.0966 152.897 25.6231 153.238 26.3011C153.582 26.9792 153.755 27.7689 153.755 28.6705C153.755 29.572 153.582 30.3598 153.238 31.0341C152.897 31.7083 152.414 32.233 151.789 32.608C151.164 32.983 150.425 33.1705 149.573 33.1705ZM149.584 31.5227C150.046 31.5227 150.433 31.3958 150.743 31.142C151.054 30.8845 151.285 30.5398 151.437 30.108C151.592 29.6761 151.67 29.1951 151.67 28.6648C151.67 28.1307 151.592 27.6477 151.437 27.2159C151.285 26.7803 151.054 26.4337 150.743 26.1761C150.433 25.9186 150.046 25.7898 149.584 25.7898C149.111 25.7898 148.717 25.9186 148.403 26.1761C148.092 26.4337 147.859 26.7803 147.704 27.2159C147.552 27.6477 147.476 28.1307 147.476 28.6648C147.476 29.1951 147.552 29.6761 147.704 30.108C147.859 30.5398 148.092 30.8845 148.403 31.142C148.717 31.3958 149.111 31.5227 149.584 31.5227ZM158.357 27.8864V33H156.301V24.2727H158.266V25.7557H158.369C158.57 25.267 158.89 24.8788 159.329 24.5909C159.772 24.303 160.32 24.1591 160.971 24.1591C161.573 24.1591 162.098 24.2879 162.545 24.5455C162.996 24.803 163.344 25.1761 163.59 25.6648C163.84 26.1534 163.963 26.7462 163.96 27.4432V33H161.903V27.7614C161.903 27.178 161.751 26.7216 161.448 26.392C161.149 26.0625 160.734 25.8977 160.204 25.8977C159.844 25.8977 159.524 25.9773 159.244 26.1364C158.967 26.2917 158.749 26.517 158.59 26.8125C158.435 27.108 158.357 27.4659 158.357 27.8864Z" fill="white"/>
</svg>
