<svg width="200" height="50" viewBox="0 0 200 50" fill="none" xmlns="http://www.w3.org/2000/svg">
<rect width="200" height="50" rx="25" fill="#B6B6B6"/>
<path d="M36.179 22.0994C36.0606 21.7159 35.8973 21.3726 35.6889 21.0696C35.4853 20.7618 35.2391 20.4991 34.9503 20.2812C34.6662 20.0634 34.3395 19.9001 33.9702 19.7912C33.6009 19.6776 33.1984 19.6207 32.7628 19.6207C31.9815 19.6207 31.2855 19.8172 30.6747 20.2102C30.0639 20.6032 29.5833 21.1809 29.233 21.9432C28.8873 22.7008 28.7145 23.6241 28.7145 24.7131C28.7145 25.8116 28.8873 26.742 29.233 27.5043C29.5786 28.2666 30.0592 28.8466 30.6747 29.2443C31.2902 29.6373 32.0052 29.8338 32.8196 29.8338C33.5582 29.8338 34.1974 29.6918 34.7372 29.4077C35.2817 29.1236 35.7008 28.7211 35.9943 28.2003C36.2879 27.6747 36.4347 27.0592 36.4347 26.3537L37.0312 26.446H33.0824V24.3864H38.9844V26.1335C38.9844 27.3788 38.7192 28.456 38.1889 29.3651C37.6586 30.2741 36.9295 30.9749 36.0014 31.4673C35.0734 31.955 34.008 32.1989 32.8054 32.1989C31.4654 32.1989 30.2888 31.8982 29.2756 31.2969C28.267 30.6908 27.4787 29.8314 26.9105 28.7188C26.3471 27.6013 26.0653 26.2756 26.0653 24.7415C26.0653 23.5672 26.2311 22.5185 26.5625 21.5952C26.8987 20.6719 27.3674 19.8883 27.9688 19.2443C28.5701 18.5956 29.2756 18.1032 30.0852 17.767C30.8949 17.4261 31.7756 17.2557 32.7273 17.2557C33.5322 17.2557 34.2827 17.3741 34.9787 17.6108C35.6747 17.8428 36.2926 18.1742 36.8324 18.6051C37.3769 19.036 37.8243 19.5473 38.1747 20.1392C38.5251 20.7311 38.7547 21.3845 38.8636 22.0994H36.179ZM43.1023 32V21.0909H45.6733V32H43.1023ZM44.3949 19.5426C43.9877 19.5426 43.6373 19.4077 43.3438 19.1378C43.0502 18.8632 42.9034 18.5341 42.9034 18.1506C42.9034 17.7623 43.0502 17.4332 43.3438 17.1634C43.6373 16.8887 43.9877 16.7514 44.3949 16.7514C44.8068 16.7514 45.1572 16.8887 45.446 17.1634C45.7396 17.4332 45.8864 17.7623 45.8864 18.1506C45.8864 18.5341 45.7396 18.8632 45.446 19.1378C45.1572 19.4077 44.8068 19.5426 44.3949 19.5426ZM54.7646 21.0909V23.0795H48.4933V21.0909H54.7646ZM50.0415 18.4773H52.6126V28.7188C52.6126 29.0644 52.6647 29.3295 52.7688 29.5142C52.8777 29.6941 53.0198 29.8172 53.195 29.8835C53.3701 29.9498 53.5643 29.983 53.7773 29.983C53.9383 29.983 54.0851 29.9711 54.2177 29.9474C54.355 29.9238 54.4592 29.9025 54.5302 29.8835L54.9634 31.8935C54.8261 31.9408 54.6296 31.9929 54.3739 32.0497C54.123 32.1065 53.8152 32.1397 53.4506 32.1491C52.8067 32.1681 52.2267 32.071 51.7106 31.858C51.1945 31.6402 50.7849 31.304 50.4819 30.8494C50.1836 30.3949 50.0368 29.8267 50.0415 29.1449V18.4773ZM60.7202 25.608V32H58.1491V17.4545H60.6634V22.9446H60.7912C61.0469 22.3291 61.4422 21.8437 61.9773 21.4886C62.517 21.1288 63.2036 20.9489 64.0369 20.9489C64.7945 20.9489 65.455 21.1075 66.0185 21.4247C66.5819 21.742 67.0175 22.206 67.3253 22.8168C67.6378 23.4276 67.794 24.1733 67.794 25.054V32H65.223V25.4517C65.223 24.7178 65.0336 24.1473 64.6548 23.7401C64.2808 23.3281 63.7552 23.1222 63.0781 23.1222C62.6236 23.1222 62.2164 23.2216 61.8565 23.4205C61.5014 23.6146 61.2221 23.8963 61.0185 24.2656C60.8196 24.6349 60.7202 25.0824 60.7202 25.608ZM78.3679 27.4119V21.0909H80.9389V32H78.446V30.0611H78.3324C78.0862 30.6719 77.6813 31.1714 77.1179 31.5597C76.5592 31.9479 75.8703 32.142 75.0511 32.142C74.3362 32.142 73.7041 31.9834 73.1548 31.6662C72.6103 31.3442 72.1842 30.8778 71.8764 30.267C71.5687 29.6515 71.4148 28.9081 71.4148 28.0369V21.0909H73.9858V27.6392C73.9858 28.3305 74.1752 28.8797 74.554 29.2869C74.9328 29.6941 75.4299 29.8977 76.0455 29.8977C76.4242 29.8977 76.7912 29.8054 77.1463 29.6207C77.5014 29.4361 77.7926 29.1615 78.0199 28.7969C78.2519 28.4276 78.3679 27.9659 78.3679 27.4119ZM84.6964 32V17.4545H87.2674V22.8949H87.3739C87.5065 22.6297 87.6935 22.348 87.935 22.0497C88.1765 21.7467 88.5032 21.4886 88.9151 21.2756C89.3271 21.0578 89.8526 20.9489 90.4918 20.9489C91.3346 20.9489 92.0946 21.1643 92.7717 21.5952C93.4535 22.0213 93.9933 22.6534 94.391 23.4915C94.7934 24.3248 94.9947 25.3475 94.9947 26.5597C94.9947 27.7576 94.7982 28.7756 94.4052 29.6136C94.0122 30.4517 93.4772 31.0909 92.8001 31.5312C92.123 31.9716 91.3559 32.1918 90.4989 32.1918C89.8739 32.1918 89.3555 32.0876 88.9435 31.8793C88.5316 31.6709 88.2002 31.42 87.9492 31.1264C87.703 30.8281 87.5112 30.5464 87.3739 30.2812H87.2248V32H84.6964ZM87.2177 26.5455C87.2177 27.2509 87.3171 27.8688 87.516 28.3991C87.7196 28.9295 88.0108 29.3437 88.3896 29.642C88.7731 29.9356 89.2371 30.0824 89.7816 30.0824C90.3498 30.0824 90.8256 29.9309 91.2092 29.6278C91.5927 29.3201 91.8815 28.901 92.0756 28.3707C92.2745 27.8357 92.3739 27.2273 92.3739 26.5455C92.3739 25.8684 92.2769 25.267 92.0827 24.7415C91.8886 24.2159 91.5998 23.804 91.2163 23.5057C90.8327 23.2074 90.3545 23.0582 89.7816 23.0582C89.2324 23.0582 88.766 23.2027 88.3825 23.4915C87.9989 23.7803 87.7077 24.1851 87.5089 24.706C87.3147 25.2268 87.2177 25.84 87.2177 26.5455ZM112.763 23.9744L110.42 24.2301C110.353 23.9934 110.237 23.7708 110.072 23.5625C109.911 23.3542 109.693 23.1861 109.418 23.0582C109.144 22.9304 108.808 22.8665 108.41 22.8665C107.875 22.8665 107.425 22.9825 107.06 23.2145C106.701 23.4465 106.523 23.7472 106.528 24.1165C106.523 24.4337 106.639 24.6918 106.876 24.8906C107.117 25.0895 107.515 25.2528 108.069 25.3807L109.93 25.7784C110.962 26.0009 111.729 26.3537 112.231 26.8366C112.737 27.3196 112.993 27.9517 112.998 28.733C112.993 29.4195 112.792 30.0256 112.394 30.5511C112.001 31.072 111.454 31.4792 110.754 31.7727C110.053 32.0663 109.248 32.2131 108.339 32.2131C107.004 32.2131 105.929 31.9337 105.114 31.375C104.3 30.8116 103.815 30.0279 103.658 29.0241L106.165 28.7827C106.279 29.2751 106.521 29.6468 106.89 29.8977C107.259 30.1487 107.74 30.2741 108.332 30.2741C108.942 30.2741 109.433 30.1487 109.802 29.8977C110.176 29.6468 110.363 29.3366 110.363 28.9673C110.363 28.6548 110.242 28.3968 110.001 28.1932C109.764 27.9896 109.395 27.8333 108.893 27.7244L107.032 27.3338C105.986 27.116 105.211 26.7491 104.71 26.233C104.208 25.7121 103.959 25.054 103.964 24.2585C103.959 23.5862 104.141 23.0038 104.511 22.5114C104.885 22.0142 105.403 21.6307 106.066 21.3608C106.734 21.0862 107.503 20.9489 108.374 20.9489C109.653 20.9489 110.659 21.2211 111.393 21.7656C112.131 22.3101 112.588 23.0464 112.763 23.9744ZM120.876 32.2131C119.811 32.2131 118.888 31.9787 118.107 31.5099C117.325 31.0412 116.719 30.3854 116.288 29.5426C115.862 28.6998 115.649 27.715 115.649 26.5881C115.649 25.4612 115.862 24.474 116.288 23.6264C116.719 22.7789 117.325 22.1207 118.107 21.652C118.888 21.1832 119.811 20.9489 120.876 20.9489C121.942 20.9489 122.865 21.1832 123.646 21.652C124.428 22.1207 125.031 22.7789 125.457 23.6264C125.888 24.474 126.104 25.4612 126.104 26.5881C126.104 27.715 125.888 28.6998 125.457 29.5426C125.031 30.3854 124.428 31.0412 123.646 31.5099C122.865 31.9787 121.942 32.2131 120.876 32.2131ZM120.891 30.1534C121.468 30.1534 121.951 29.9948 122.339 29.6776C122.728 29.3556 123.017 28.9247 123.206 28.3849C123.4 27.8452 123.497 27.2438 123.497 26.581C123.497 25.9134 123.4 25.3097 123.206 24.7699C123.017 24.2254 122.728 23.7921 122.339 23.4702C121.951 23.1482 121.468 22.9872 120.891 22.9872C120.299 22.9872 119.806 23.1482 119.413 23.4702C119.025 23.7921 118.734 24.2254 118.54 24.7699C118.35 25.3097 118.256 25.9134 118.256 26.581C118.256 27.2438 118.35 27.8452 118.54 28.3849C118.734 28.9247 119.025 29.3556 119.413 29.6776C119.806 29.9948 120.299 30.1534 120.891 30.1534ZM136.239 27.4119V21.0909H138.81V32H136.317V30.0611H136.203C135.957 30.6719 135.552 31.1714 134.989 31.5597C134.43 31.9479 133.741 32.142 132.922 32.142C132.207 32.142 131.575 31.9834 131.026 31.6662C130.481 31.3442 130.055 30.8778 129.748 30.267C129.44 29.6515 129.286 28.9081 129.286 28.0369V21.0909H131.857V27.6392C131.857 28.3305 132.046 28.8797 132.425 29.2869C132.804 29.6941 133.301 29.8977 133.917 29.8977C134.295 29.8977 134.662 29.8054 135.017 29.6207C135.373 29.4361 135.664 29.1615 135.891 28.7969C136.123 28.4276 136.239 27.9659 136.239 27.4119ZM142.454 32V21.0909H144.947V22.9091H145.06C145.259 22.2794 145.6 21.794 146.083 21.4531C146.571 21.1075 147.127 20.9347 147.752 20.9347C147.894 20.9347 148.053 20.9418 148.228 20.956C148.408 20.9654 148.557 20.982 148.675 21.0057V23.3707C148.567 23.3329 148.394 23.2997 148.157 23.2713C147.925 23.2382 147.7 23.2216 147.482 23.2216C147.013 23.2216 146.592 23.3234 146.218 23.527C145.849 23.7259 145.558 24.0028 145.344 24.358C145.131 24.7131 145.025 25.1226 145.025 25.5866V32H142.454ZM155.693 32.2131C154.604 32.2131 153.669 31.974 152.887 31.4957C152.111 31.0175 151.512 30.357 151.091 29.5142C150.674 28.6667 150.466 27.6913 150.466 26.5881C150.466 25.4801 150.679 24.5024 151.105 23.6548C151.531 22.8026 152.132 22.1397 152.909 21.6662C153.69 21.188 154.613 20.9489 155.679 20.9489C156.564 20.9489 157.348 21.1122 158.029 21.4389C158.716 21.7609 159.263 22.2178 159.67 22.8097C160.077 23.3968 160.309 24.0833 160.366 24.8693H157.909C157.809 24.3437 157.573 23.9058 157.199 23.5554C156.829 23.2003 156.334 23.0227 155.714 23.0227C155.189 23.0227 154.727 23.1648 154.329 23.4489C153.931 23.7282 153.621 24.1307 153.399 24.6562C153.181 25.1818 153.072 25.8116 153.072 26.5455C153.072 27.2888 153.181 27.928 153.399 28.4631C153.617 28.9934 153.922 29.4029 154.315 29.6918C154.713 29.9759 155.179 30.1179 155.714 30.1179C156.093 30.1179 156.431 30.0469 156.73 29.9048C157.033 29.758 157.286 29.5473 157.49 29.2727C157.693 28.9981 157.833 28.6643 157.909 28.2713H160.366C160.305 29.0431 160.077 29.7273 159.684 30.3239C159.291 30.9157 158.756 31.3797 158.079 31.7159C157.402 32.0473 156.607 32.2131 155.693 32.2131ZM168.307 32.2131C167.213 32.2131 166.268 31.9858 165.473 31.5312C164.682 31.072 164.074 30.4233 163.648 29.5852C163.222 28.7424 163.009 27.7505 163.009 26.6094C163.009 25.4872 163.222 24.5024 163.648 23.6548C164.079 22.8026 164.68 22.1397 165.452 21.6662C166.223 21.188 167.13 20.9489 168.172 20.9489C168.844 20.9489 169.479 21.0578 170.075 21.2756C170.677 21.4886 171.207 21.8201 171.666 22.2699C172.13 22.7197 172.495 23.2926 172.76 23.9886C173.025 24.6799 173.158 25.5038 173.158 26.4602V27.2486H164.216V25.5156H170.693C170.688 25.0232 170.582 24.5852 170.374 24.2017C170.165 23.8134 169.874 23.508 169.5 23.2855C169.131 23.063 168.7 22.9517 168.207 22.9517C167.682 22.9517 167.22 23.0795 166.822 23.3352C166.425 23.5862 166.115 23.9176 165.892 24.3295C165.674 24.7367 165.563 25.1842 165.558 25.6719V27.1847C165.558 27.8191 165.674 28.3636 165.906 28.8182C166.138 29.268 166.463 29.6136 166.879 29.8551C167.296 30.0919 167.784 30.2102 168.342 30.2102C168.716 30.2102 169.055 30.1581 169.358 30.054C169.661 29.9451 169.924 29.7865 170.146 29.5781C170.369 29.3698 170.537 29.1117 170.651 28.804L173.051 29.0739C172.9 29.7083 172.611 30.2623 172.185 30.7358C171.763 31.2045 171.223 31.5691 170.565 31.8295C169.907 32.0852 169.154 32.2131 168.307 32.2131Z" fill="black" fill-opacity="0.6"/>
</svg>
