<svg xmlns="http://www.w3.org/2000/svg" version="1.1" xmlns:xlink="http://www.w3.org/1999/xlink" xmlns:svgjs="http://svgjs.dev/svgjs" width="2000" height="267" viewBox="0 0 2000 267"><g transform="matrix(1,0,0,1,-1.2121212121212466,-1.7585547373683994)"><svg viewBox="0 0 396 53" data-background-color="#ffffff" preserveAspectRatio="xMidYMid meet" height="267" width="2000" xmlns="http://www.w3.org/2000/svg" xmlns:xlink="http://www.w3.org/1999/xlink"><g id="tight-bounds" transform="matrix(1,0,0,1,0.2400000000000091,0.3490764085412934)"><svg viewBox="0 0 395.52 52.30184718291741" height="52.30184718291741" width="395.52"><g><svg viewBox="0 0 395.52 52.30184718291741" height="52.30184718291741" width="395.52"><g><svg viewBox="0 0 395.52 52.30184718291741" height="52.30184718291741" width="395.52"><g id="textblocktransform"><svg viewBox="0 0 395.52 52.30184718291741" height="52.30184718291741" width="395.52" id="textblock"><g><svg viewBox="0 0 395.52 52.30184718291741" height="52.30184718291741" width="395.52"><g transform="matrix(1,0,0,1,0,0)"><svg width="395.52" viewBox="-0.56 -39.65 379.56 50.2" height="52.30184718291741" data-palette-color="#0063db"><path d="M21.04 0L10.11 0 10.11-11.87-0.56-34.52 11.99-34.52 16.19-22.09 20.04-34.52 30.69-34.52 21.04-12.18 21.04 0ZM34.3 0L34.3-34.52 45.92-34.52Q47.43-34.52 49.25-34.41 51.07-34.3 52.9-33.97 54.73-33.64 56.44-33.04 58.15-32.45 59.48-31.48 60.81-30.52 61.61-29.11 62.4-27.71 62.4-25.78L62.4-25.78Q62.4-24.63 62.13-23.5 61.86-22.36 61.17-21.41 60.47-20.46 59.26-19.75 58.05-19.04 56.17-18.75L56.17-18.75Q58.23-18.63 59.82-17.81 61.42-16.99 62.52-15.77 63.62-14.55 64.19-13.07 64.77-11.6 64.77-10.16L64.77-10.16Q64.77-8.23 63.99-6.41 63.21-4.59 61.36-3.16 59.52-1.73 56.49-0.87 53.46 0 48.97 0L48.97 0 34.3 0ZM45.24-14.06L45.24-6.25 49.66-6.25Q51.76-6.25 52.79-7.34 53.83-8.42 53.83-10.16L53.83-10.16Q53.83-11.18 53.48-11.91 53.12-12.65 52.17-13.12 51.22-13.6 49.55-13.83 47.87-14.06 45.24-14.06L45.24-14.06ZM45.24-20.31L48.65-20.31Q49.8-20.31 50.75-20.64 51.71-20.97 52.39-21.51 53.07-22.05 53.45-22.75 53.83-23.46 53.83-24.22L53.83-24.22Q53.83-25.39 53.37-26.15 52.9-26.9 51.88-27.34 50.85-27.78 49.22-27.95 47.58-28.13 45.24-28.13L45.24-28.13 45.24-20.31ZM73.73-22.88L72.26-37.48 80.07-37.48 78.61-22.88 73.73-22.88ZM109.07-25.63L108.71-18.46Q106.27-19.58 103.94-20.2 101.6-20.83 99.85-20.83L99.85-20.83Q97.99-20.83 97.21-20.47 96.43-20.12 96.43-19.24L96.43-19.24Q96.43-18.46 97.58-18.01 98.72-17.55 100.94-16.97L100.94-16.97Q103.17-16.38 104.92-15.67 106.68-14.97 107.91-13.92 109.15-12.87 109.79-11.4 110.44-9.94 110.44-7.81L110.44-7.81Q110.44-5.91 109.71-4.33 108.98-2.76 107.49-1.64 106-0.51 103.73 0.1 101.46 0.71 98.38 0.71L98.38 0.71Q95.65 0.71 92.89 0.31 90.13-0.1 87.32-1.12L87.32-1.12 87.32-8.67Q89.84-7.57 92.38-6.91 94.91-6.25 97.21-6.25L97.21-6.25Q101.34-6.25 101.34-7.96L101.34-7.96Q101.34-8.25 101.14-8.5 100.94-8.74 100.42-8.97 99.89-9.2 98.95-9.46 98.01-9.72 96.55-10.08L96.55-10.08Q94.52-10.57 92.73-11.34 90.93-12.11 89.6-13.22 88.27-14.33 87.5-15.82 86.74-17.31 86.74-19.21L86.74-19.21Q86.74-20.92 87.46-22.36 88.18-23.8 89.63-24.83 91.08-25.85 93.24-26.43 95.4-27 98.26-27L98.26-27Q99.92-27 101.45-26.86 102.97-26.71 104.34-26.5 105.71-26.29 106.89-26.06 108.07-25.83 109.07-25.63L109.07-25.63ZM133.83 10.55L133.83-26.34 144.57-26.34Q144.15-25.02 143.99-23.89 143.84-22.75 143.84-21.51L143.84-21.51Q144.52-22.71 145.62-23.71 146.72-24.71 148.03-25.44 149.35-26.17 150.81-26.59 152.26-27 153.65-27L153.65-27Q155.7-27 157.63-26.22 159.56-25.44 161.03-23.8 162.51-22.17 163.4-19.62 164.29-17.07 164.29-13.55L164.29-13.55Q164.29-9.59 163.31-6.87 162.32-4.15 160.73-2.47 159.14-0.78 157.15-0.04 155.16 0.71 153.16 0.71L153.16 0.71Q151.72 0.71 150.37 0.4 149.01 0.1 147.85-0.45 146.69-1 145.79-1.75 144.88-2.49 144.37-3.37L144.37-3.37 144.37 10.55 133.83 10.55ZM144.37-13.11L144.37-13.11Q144.37-11.11 144.81-9.77 145.25-8.42 145.97-7.6 146.69-6.79 147.61-6.43 148.52-6.08 149.47-6.08L149.47-6.08Q150.43-6.08 151.33-6.43 152.23-6.79 152.94-7.6 153.65-8.42 154.08-9.78 154.5-11.13 154.5-13.13L154.5-13.13Q154.5-15.11 154.08-16.47 153.65-17.82 152.94-18.65 152.23-19.48 151.34-19.84 150.45-20.19 149.5-20.19L149.5-20.19Q148.55-20.19 147.63-19.84 146.72-19.48 145.98-18.65 145.25-17.82 144.81-16.47 144.37-15.11 144.37-13.11ZM183.53 0.71L183.53 0.71Q180.65 0.71 178.4 0.17 176.16-0.37 174.47-1.32 172.79-2.27 171.6-3.58 170.42-4.88 169.69-6.42 168.95-7.96 168.63-9.67 168.3-11.38 168.3-13.13L168.3-13.13Q168.3-14.87 168.63-16.56 168.95-18.26 169.69-19.81 170.42-21.36 171.59-22.67 172.76-23.97 174.46-24.94 176.16-25.9 178.4-26.45 180.65-27 183.53-27L183.53-27Q186.41-27 188.66-26.45 190.9-25.9 192.6-24.94 194.3-23.97 195.47-22.67 196.64-21.36 197.37-19.81 198.11-18.26 198.43-16.56 198.76-14.87 198.76-13.13L198.76-13.13Q198.76-11.38 198.43-9.67 198.11-7.96 197.37-6.42 196.64-4.88 195.46-3.58 194.27-2.27 192.59-1.32 190.9-0.37 188.66 0.17 186.41 0.71 183.53 0.71ZM178.84-13.13L178.84-13.13Q178.84-11.82 179.09-10.56 179.33-9.3 179.88-8.31 180.43-7.32 181.32-6.73 182.21-6.13 183.53-6.13L183.53-6.13Q184.85-6.13 185.74-6.73 186.63-7.32 187.18-8.31 187.73-9.3 187.97-10.56 188.22-11.82 188.22-13.13L188.22-13.13Q188.22-14.45 187.97-15.71 187.73-16.97 187.18-17.96 186.63-18.95 185.74-19.56 184.85-20.17 183.53-20.17L183.53-20.17Q182.21-20.17 181.32-19.56 180.43-18.95 179.88-17.96 179.33-16.97 179.09-15.71 178.84-14.45 178.84-13.13ZM204.52 0L204.52-26.34 214.56-26.34Q214.51-25.71 214.48-24.94 214.46-24.17 214.46-23.33 214.46-22.49 214.46-21.63 214.46-20.78 214.46-20L214.46-20Q214.95-21.19 215.73-22.45 216.51-23.71 217.57-24.71 218.63-25.71 219.99-26.35 221.34-27 223.03-27L223.03-27Q223.35-27 223.73-26.97 224.1-26.93 224.47-26.86 224.84-26.78 225.17-26.67 225.5-26.56 225.71-26.42L225.71-26.42 224.86-16.36Q223.76-16.77 222.54-16.98 221.32-17.19 220.42-17.19L220.42-17.19Q219.17-17.19 218.23-16.88 217.29-16.58 216.63-16.09 215.97-15.6 215.6-15.01 215.22-14.43 215.07-13.87L215.07-13.87 215.07 0 204.52 0ZM243.27 0.71L243.27 0.71Q241 0.71 238.92 0.16 236.85-0.39 235.27-1.7 233.7-3 232.76-5.16 231.82-7.32 231.82-10.55L231.82-10.55 231.82-20.29 226.96-20.29 226.96-21.88 238.46-34.38 242.36-34.38 242.36-26.34 250.18-26.34Q249.88-24.88 249.65-23.39 249.42-21.9 249.39-20.29L249.39-20.29 242.36-20.29 242.36-10.64Q242.36-9.77 242.5-8.95 242.63-8.13 243.05-7.51 243.46-6.88 244.24-6.51 245.02-6.13 246.32-6.13L246.32-6.13Q247.15-6.13 248.15-6.29 249.15-6.45 250.42-6.88L250.42-6.88 251.01-0.56Q249.47 0 247.48 0.35 245.49 0.71 243.27 0.71ZM267.7-20.19L267.7 0 257.16 0 257.16-20.19 252.96-20.19 252.96-26.34 257.11-26.34Q257.11-29.35 257.91-31.58 258.72-33.81 260.21-35.3 261.7-36.79 263.81-37.54 265.92-38.28 268.56-38.28L268.56-38.28Q270.71-38.28 272.54-37.82 274.37-37.35 275.91-36.72L275.91-36.72 275.12-30.44Q273.71-30.79 272.77-31.02 271.83-31.25 270.95-31.25L270.95-31.25Q269.83-31.25 269.18-30.83 268.53-30.42 268.2-29.74 267.87-29.05 267.79-28.16 267.7-27.27 267.7-26.34L267.7-26.34 275.08-26.34Q274.73-24.73 274.54-23.24 274.34-21.75 274.34-20.19L274.34-20.19 267.7-20.19ZM292.65 0.71L292.65 0.71Q289.77 0.71 287.52 0.17 285.28-0.37 283.59-1.32 281.91-2.27 280.72-3.58 279.54-4.88 278.81-6.42 278.08-7.96 277.75-9.67 277.42-11.38 277.42-13.13L277.42-13.13Q277.42-14.87 277.75-16.56 278.08-18.26 278.81-19.81 279.54-21.36 280.71-22.67 281.88-23.97 283.58-24.94 285.28-25.9 287.52-26.45 289.77-27 292.65-27L292.65-27Q295.53-27 297.78-26.45 300.02-25.9 301.72-24.94 303.42-23.97 304.59-22.67 305.76-21.36 306.49-19.81 307.23-18.26 307.56-16.56 307.89-14.87 307.89-13.13L307.89-13.13Q307.89-11.38 307.56-9.67 307.23-7.96 306.49-6.42 305.76-4.88 304.58-3.58 303.39-2.27 301.71-1.32 300.02-0.37 297.78 0.17 295.53 0.71 292.65 0.71ZM287.96-13.13L287.96-13.13Q287.96-11.82 288.21-10.56 288.45-9.3 289-8.31 289.55-7.32 290.44-6.73 291.33-6.13 292.65-6.13L292.65-6.13Q293.97-6.13 294.86-6.73 295.75-7.32 296.3-8.31 296.85-9.3 297.09-10.56 297.34-11.82 297.34-13.13L297.34-13.13Q297.34-14.45 297.09-15.71 296.85-16.97 296.3-17.96 295.75-18.95 294.86-19.56 293.97-20.17 292.65-20.17L292.65-20.17Q291.33-20.17 290.44-19.56 289.55-18.95 289-17.96 288.45-16.97 288.21-15.71 287.96-14.45 287.96-13.13ZM313.64 0L313.64-37.5 324.19-37.5 324.19 0 313.64 0ZM331.95 0L331.95-26.34 342.5-26.34 342.5 0 331.95 0ZM337.25-31.76L337.25-31.76Q335.86-31.76 334.64-32.06 333.42-32.35 332.53-32.86 331.64-33.37 331.11-34.11 330.59-34.84 330.59-35.72L330.59-35.72Q330.59-36.69 331.1-37.44 331.61-38.18 332.51-38.67 333.42-39.16 334.64-39.4 335.86-39.65 337.27-39.65L337.27-39.65Q338.69-39.65 339.92-39.4 341.16-39.16 342.06-38.67 342.96-38.18 343.48-37.44 343.99-36.69 343.99-35.72L343.99-35.72Q343.99-34.84 343.46-34.11 342.94-33.37 342.04-32.86 341.13-32.35 339.9-32.06 338.67-31.76 337.25-31.76ZM363.76 0.71L363.76 0.71Q360.88 0.71 358.63 0.17 356.39-0.37 354.7-1.32 353.02-2.27 351.84-3.58 350.65-4.88 349.92-6.42 349.19-7.96 348.86-9.67 348.53-11.38 348.53-13.13L348.53-13.13Q348.53-14.87 348.86-16.56 349.19-18.26 349.92-19.81 350.65-21.36 351.82-22.67 352.99-23.97 354.69-24.94 356.39-25.9 358.63-26.45 360.88-27 363.76-27L363.76-27Q366.64-27 368.89-26.45 371.13-25.9 372.83-24.94 374.53-23.97 375.7-22.67 376.87-21.36 377.6-19.81 378.34-18.26 378.67-16.56 379-14.87 379-13.13L379-13.13Q379-11.38 378.67-9.67 378.34-7.96 377.6-6.42 376.87-4.88 375.69-3.58 374.5-2.27 372.82-1.32 371.13-0.37 368.89 0.17 366.64 0.71 363.76 0.71ZM359.07-13.13L359.07-13.13Q359.07-11.82 359.32-10.56 359.56-9.3 360.11-8.31 360.66-7.32 361.55-6.73 362.44-6.13 363.76-6.13L363.76-6.13Q365.08-6.13 365.97-6.73 366.86-7.32 367.41-8.31 367.96-9.3 368.2-10.56 368.45-11.82 368.45-13.13L368.45-13.13Q368.45-14.45 368.2-15.71 367.96-16.97 367.41-17.96 366.86-18.95 365.97-19.56 365.08-20.17 363.76-20.17L363.76-20.17Q362.44-20.17 361.55-19.56 360.66-18.95 360.11-17.96 359.56-16.97 359.32-15.71 359.07-14.45 359.07-13.13Z" opacity="1" transform="matrix(1,0,0,1,0,0)" fill="#000000" class="wordmark-text-0" data-fill-palette-color="primary" id="text-0"></path></svg></g></svg></g></svg></g></svg></g></svg></g><defs></defs></svg><rect width="395.52" height="52.30184718291741" fill="none" stroke="none" visibility="hidden"></rect></g></svg></g></svg>