<svg xmlns="http://www.w3.org/2000/svg" version="1.1" xmlns:xlink="http://www.w3.org/1999/xlink" xmlns:svgjs="http://svgjs.dev/svgjs" width="2000" height="722" viewBox="0 0 2000 722"><g transform="matrix(1,0,0,1,-1.2121212121212466,-0.6247714831006874)"><svg viewBox="0 0 396 143" data-background-color="#ffffff" preserveAspectRatio="xMidYMid meet" height="722" width="2000" xmlns="http://www.w3.org/2000/svg" xmlns:xlink="http://www.w3.org/1999/xlink"><g id="tight-bounds" transform="matrix(1,0,0,1,0.2400000000000091,0.12374282837035366)"><svg viewBox="0 0 395.52 142.7525143432593" height="142.7525143432593" width="395.52"><g><svg viewBox="0 0 677.2384497181718 244.43135999999998" height="142.7525143432593" width="395.52"><g transform="matrix(1,0,0,1,281.7184497181717,63.64716972677526)"><svg viewBox="0 0 395.52 117.13702054644946" height="117.13702054644946" width="395.52"><g id="textblocktransform"><svg viewBox="0 0 395.52 117.13702054644946" height="117.13702054644946" width="395.52" id="textblock"><g><svg viewBox="0 0 395.52 63.17811165585955" height="63.17811165585955" width="395.52"><g transform="matrix(1,0,0,1,0,0)"><svg width="395.52" viewBox="-0.25 -38.5 316.12 50.5" height="63.17811165585955" data-palette-color="#333333"><path d="M23.5 0L7.95 0 7.95-2.1 9.1-2.1Q10.2-2.1 11.13-2.33 12.05-2.55 12.63-3.28 13.2-4 13.2-5.45L13.2-5.45 13.2-14.9 3.95-30.95Q3.4-31.9 2.93-32.48 2.45-33.05 1.85-33.33 1.25-33.6 0.4-33.6L0.4-33.6-0.25-33.6-0.25-35.7 13.5-35.7 13.5-33.6 11.65-33.6Q10.3-33.6 9.88-33.13 9.45-32.65 9.45-32L9.45-32Q9.45-31.3 9.75-30.6 10.05-29.9 10.35-29.35L10.35-29.35 14.05-22.65Q14.9-21.1 15.53-19.6 16.15-18.1 16.55-16.95L16.55-16.95Q17-18 17.85-19.55 18.7-21.1 19.55-22.65L19.55-22.65 22.75-28.4Q23.25-29.25 23.45-30.03 23.65-30.8 23.65-31.4L23.65-31.4Q23.65-32.5 22.88-33.05 22.1-33.6 20.65-33.6L20.65-33.6 19.2-33.6 19.2-35.7 31.4-35.7 31.4-33.6 30.8-33.6Q30.1-33.6 29.48-33.25 28.85-32.9 28.18-32.05 27.5-31.2 26.65-29.7L26.65-29.7 18.25-14.9 18.25-5.7Q18.25-4.15 18.8-3.38 19.35-2.6 20.3-2.35 21.25-2.1 22.35-2.1L22.35-2.1 23.5-2.1 23.5 0ZM48.05 0L33.15 0 33.15-2.1 33.8-2.1Q34.95-2.1 35.87-2.35 36.8-2.6 37.35-3.38 37.9-4.15 37.9-5.7L37.9-5.7 37.9-30.2Q37.9-31.7 37.32-32.43 36.75-33.15 35.82-33.38 34.9-33.6 33.8-33.6L33.8-33.6 33.15-33.6 33.15-35.7 46.55-35.7Q53.05-35.7 56.22-33.52 59.4-31.35 59.4-26.75L59.4-26.75Q59.4-24.55 58.6-23 57.8-21.45 56.4-20.48 55-19.5 53.2-18.9L53.2-18.9 53.2-18.7Q56.6-18.1 58.75-15.88 60.9-13.65 60.9-9.65L60.9-9.65Q60.9-4.8 57.72-2.4 54.55 0 48.05 0L48.05 0ZM42.95-2.5L47.8-2.5Q52.05-2.5 53.8-4.15 55.55-5.8 55.55-9.8L55.55-9.8Q55.55-12.4 54.85-14.1 54.15-15.8 52.5-16.63 50.85-17.45 47.9-17.45L47.9-17.45 42.95-17.45 42.95-2.5ZM42.95-19.95L46.4-19.95Q49.35-19.95 51-20.65 52.65-21.35 53.35-22.85 54.05-24.35 54.05-26.75L54.05-26.75Q54.05-30.45 52.3-31.83 50.55-33.2 46.3-33.2L46.3-33.2 42.95-33.2 42.95-19.95ZM70.5-23.2L68.25-23.2 66.85-35.7 71.9-35.7 70.5-23.2ZM85.24 0.5L85.24 0.5Q82.74 0.5 80.89-0.1 79.04-0.7 78.02-1.88 76.99-3.05 76.99-4.8L76.99-4.8Q76.99-6.15 77.54-6.9 78.09-7.65 78.82-7.95 79.54-8.25 80.14-8.25L80.14-8.25Q80.14-5.65 81.32-3.78 82.49-1.9 85.54-1.9L85.54-1.9Q88.19-1.9 89.62-3.18 91.04-4.45 91.04-6.45L91.04-6.45Q91.04-7.7 90.52-8.5 89.99-9.3 88.67-10.08 87.34-10.85 84.89-11.9L84.89-11.9Q82.34-13.05 80.67-14.13 78.99-15.2 78.17-16.63 77.34-18.05 77.34-20.2L77.34-20.2Q77.34-23.6 79.92-25.43 82.49-27.25 86.74-27.25L86.74-27.25Q89.14-27.25 90.77-26.63 92.39-26 93.22-24.95 94.04-23.9 94.04-22.65L94.04-22.65Q94.04-21.3 93.12-20.48 92.19-19.65 90.44-19.65L90.44-19.65Q90.44-22.15 89.39-23.55 88.34-24.95 86.14-24.95L86.14-24.95Q83.59-24.95 82.49-23.83 81.39-22.7 81.39-20.95L81.39-20.95Q81.39-19.05 82.82-18.03 84.24-17 87.59-15.65L87.59-15.65Q90.24-14.55 91.89-13.45 93.54-12.35 94.32-10.9 95.09-9.45 95.09-7.35L95.09-7.35Q95.09-3.45 92.39-1.48 89.69 0.5 85.24 0.5ZM124.64 12L111.19 12 111.19 9.9 111.59 9.9Q112.74 9.9 113.66 9.65 114.59 9.4 115.14 8.63 115.69 7.85 115.69 6.3L115.69 6.3 115.69-21.3Q115.69-22.8 115.11-23.53 114.54-24.25 113.61-24.48 112.69-24.7 111.59-24.7L111.59-24.7 110.94-24.7 110.94-26.8 119.69-26.8 120.19-22.3 120.39-22.3Q121.54-24.6 123.34-25.95 125.14-27.3 128.04-27.3L128.04-27.3Q132.99-27.3 135.61-23.98 138.24-20.65 138.24-13.45L138.24-13.45Q138.24-6.2 135.61-2.85 132.99 0.5 128.04 0.5L128.04 0.5Q125.14 0.5 123.31-0.73 121.49-1.95 120.39-3.9L120.39-3.9 120.19-3.9Q120.29-2.45 120.34-0.83 120.39 0.8 120.39 1.75L120.39 1.75 120.39 6.55Q120.39 8 120.96 8.72 121.54 9.45 122.46 9.68 123.39 9.9 124.49 9.9L124.49 9.9 124.64 9.9 124.64 12ZM127.24-2.7L127.24-2.7Q130.54-2.7 131.96-5.48 133.39-8.25 133.39-13.5L133.39-13.5Q133.39-18.85 131.96-21.48 130.54-24.1 127.19-24.1L127.19-24.1Q124.59-24.1 123.11-22.95 121.64-21.8 121.01-19.43 120.39-17.05 120.39-13.45L120.39-13.45Q120.39-10 121.01-7.6 121.64-5.2 123.14-3.95 124.64-2.7 127.24-2.7ZM155.34 0.5L155.34 0.5Q149.94 0.5 146.84-2.95 143.74-6.4 143.74-13.45L143.74-13.45Q143.74-20.45 146.71-23.88 149.69-27.3 155.49-27.3L155.49-27.3Q160.89-27.3 163.99-23.88 167.09-20.45 167.09-13.45L167.09-13.45Q167.09-6.4 164.11-2.95 161.14 0.5 155.34 0.5ZM155.44-2.1L155.44-2.1Q157.94-2.1 159.44-3.38 160.94-4.65 161.59-7.2 162.24-9.75 162.24-13.45L162.24-13.45Q162.24-19.05 160.69-21.85 159.14-24.65 155.39-24.65L155.39-24.65Q151.64-24.65 150.11-21.85 148.59-19.05 148.59-13.45L148.59-13.45Q148.59-7.85 150.14-4.98 151.69-2.1 155.44-2.1ZM185.93 0L171.48 0 171.48-2.1 171.63-2.1Q172.78-2.1 173.71-2.35 174.63-2.6 175.18-3.38 175.73-4.15 175.73-5.7L175.73-5.7 175.73-21.3Q175.73-22.8 175.16-23.53 174.58-24.25 173.66-24.48 172.73-24.7 171.63-24.7L171.63-24.7 171.48-24.7 171.48-26.8 179.18-26.8 180.13-21.85 180.38-21.85Q181.03-23.35 181.78-24.6 182.53-25.85 183.78-26.58 185.03-27.3 187.23-27.3L187.23-27.3Q189.98-27.3 191.31-26.35 192.63-25.4 192.63-23.65L192.63-23.65Q192.63-22.1 191.56-21.1 190.48-20.1 187.98-20.1L187.98-20.1Q187.98-22.15 187.38-23.08 186.78-24 185.33-24L185.33-24Q183.93-24 182.98-22.9 182.03-21.8 181.48-20.1 180.93-18.4 180.68-16.57 180.43-14.75 180.43-13.3L180.43-13.3 180.43-5.45Q180.43-4 181.01-3.28 181.58-2.55 182.51-2.33 183.43-2.1 184.53-2.1L184.53-2.1 185.93-2.1 185.93 0ZM205.38 0.5L205.38 0.5Q201.58 0.5 199.86-1.23 198.13-2.95 198.13-7.25L198.13-7.25 198.13-23.95 194.33-23.95 194.33-25.95Q195.23-25.95 196.33-26.33 197.43-26.7 198.23-27.55L198.23-27.55Q199.08-28.45 199.63-29.75 200.18-31.05 200.53-32.95L200.53-32.95 202.83-32.95 202.83-26.8 209.38-26.8 209.38-23.95 202.83-23.95 202.83-7.1Q202.83-4.55 203.88-3.35 204.93-2.15 206.63-2.15L206.63-2.15Q207.53-2.15 208.28-2.25 209.03-2.35 209.83-2.5L209.83-2.5 209.83-0.3Q209.18 0 207.88 0.25 206.58 0.5 205.38 0.5ZM227.78 0L212.33 0 212.33-2.1 212.98-2.1Q214.13-2.1 215.05-2.35 215.98-2.6 216.53-3.38 217.08-4.15 217.08-5.7L217.08-5.7 217.08-24.45 212.53-24.45 212.53-26.8 217.08-26.8 217.08-29.3Q217.08-33.75 219.45-36.13 221.83-38.5 225.93-38.5L225.93-38.5Q228.53-38.5 230.05-38.05 231.58-37.6 232.25-36.83 232.93-36.05 232.93-35L232.93-35Q232.93-34.1 232.4-33.48 231.88-32.85 230.95-32.52 230.03-32.2 228.83-32.2L228.83-32.2Q228.83-33.2 228.53-34.13 228.23-35.05 227.53-35.63 226.83-36.2 225.53-36.2L225.53-36.2Q223.38-36.2 222.58-34.55 221.78-32.9 221.78-29.75L221.78-29.75 221.78-26.8 228.83-26.8 228.83-24.45 221.78-24.45 221.78-5.7Q221.78-4.15 222.33-3.38 222.88-2.6 223.83-2.35 224.78-2.1 225.88-2.1L225.88-2.1 227.78-2.1 227.78 0ZM243.78 0.5L243.78 0.5Q238.38 0.5 235.28-2.95 232.18-6.4 232.18-13.45L232.18-13.45Q232.18-20.45 235.15-23.88 238.13-27.3 243.93-27.3L243.93-27.3Q249.33-27.3 252.43-23.88 255.53-20.45 255.53-13.45L255.53-13.45Q255.53-6.4 252.55-2.95 249.58 0.5 243.78 0.5ZM243.88-2.1L243.88-2.1Q246.38-2.1 247.88-3.38 249.38-4.65 250.03-7.2 250.68-9.75 250.68-13.45L250.68-13.45Q250.68-19.05 249.13-21.85 247.58-24.65 243.83-24.65L243.83-24.65Q240.08-24.65 238.55-21.85 237.03-19.05 237.03-13.45L237.03-13.45Q237.03-7.85 238.58-4.98 240.13-2.1 243.88-2.1ZM273.12 0L258.92 0 258.92-2.1 259.57-2.1Q260.72-2.1 261.65-2.35 262.57-2.6 263.12-3.38 263.67-4.15 263.67-5.7L263.67-5.7 263.67-32.5Q263.67-34 263.1-34.73 262.52-35.45 261.6-35.68 260.67-35.9 259.57-35.9L259.57-35.9 258.92-35.9 258.92-38 268.37-38 268.37-5.7Q268.37-4.15 268.92-3.38 269.47-2.6 270.42-2.35 271.37-2.1 272.47-2.1L272.47-2.1 273.12-2.1 273.12 0ZM289.12 0L274.92 0 274.92-2.1 275.57-2.1Q276.67-2.1 277.6-2.33 278.52-2.55 279.1-3.28 279.67-4 279.67-5.45L279.67-5.45 279.67-21.3Q279.67-22.8 279.1-23.53 278.52-24.25 277.6-24.48 276.67-24.7 275.57-24.7L275.57-24.7 275.42-24.7 275.42-26.8 284.37-26.8 284.37-5.7Q284.37-4.15 284.92-3.38 285.47-2.6 286.42-2.35 287.37-2.1 288.47-2.1L288.47-2.1 289.12-2.1 289.12 0ZM281.82-31.8L281.82-31.8Q280.62-31.8 279.8-32.5 278.97-33.2 278.97-34.9L278.97-34.9Q278.97-36.65 279.8-37.33 280.62-38 281.82-38L281.82-38Q282.97-38 283.82-37.33 284.67-36.65 284.67-34.9L284.67-34.9Q284.67-33.2 283.82-32.5 282.97-31.8 281.82-31.8ZM304.12 0.5L304.12 0.5Q298.72 0.5 295.62-2.95 292.52-6.4 292.52-13.45L292.52-13.45Q292.52-20.45 295.49-23.88 298.47-27.3 304.27-27.3L304.27-27.3Q309.67-27.3 312.77-23.88 315.87-20.45 315.87-13.45L315.87-13.45Q315.87-6.4 312.89-2.95 309.92 0.5 304.12 0.5ZM304.22-2.1L304.22-2.1Q306.72-2.1 308.22-3.38 309.72-4.65 310.37-7.2 311.02-9.75 311.02-13.45L311.02-13.45Q311.02-19.05 309.47-21.85 307.92-24.65 304.17-24.65L304.17-24.65Q300.42-24.65 298.89-21.85 297.37-19.05 297.37-13.45L297.37-13.45Q297.37-7.85 298.92-4.98 300.47-2.1 304.22-2.1Z" opacity="1" transform="matrix(1,0,0,1,0,0)" fill="#333333" class="wordmark-text-0" data-fill-palette-color="primary" id="text-0"></path></svg></g></svg></g><g transform="matrix(1,0,0,1,0,78.09294754312825)"><svg viewBox="0 0 196.49870229922175 39.0440730033212" height="39.0440730033212" width="196.49870229922175"><g transform="matrix(1,0,0,1,0,0)"><svg width="196.49870229922175" viewBox="-0.05 -40.35 268.98 53.45" height="39.0440730033212" data-palette-color="#333333"><path d="M41.05-25.7L31.1-25.7 31.1-23.95 35.45-23.3 29.95-5.2 23.25-23.35 27.45-23.95 27.45-25.7 16-25.7 16-23.95 20.15-23.35 13.6-5.2 7.5-23.4 11.9-23.95 11.9-25.7-0.05-25.7-0.05-23.95 3.2-23.45 11.9 0.35 13.55 0.35 21-20.1C22.35-15.85 24-11.1 28.3 0.35L30 0.35 37.9-23.35 41.05-23.95ZM47.15-15.05C47.75-21.4 51.4-24.4 55.05-24.4 58.9-24.4 61.55-21.25 61.55-17.75 61.55-16.15 61.05-15.05 58.85-15.05ZM64.95-13.1C65.2-13.85 65.3-14.9 65.3-16.2 65.3-22.45 61.1-26.4 55.3-26.4 48.7-26.4 43.05-21.05 43.05-12.7 43.05-4.15 48.1 0.7 55.1 0.7 59.75 0.7 63.2-1.6 65.25-5.2L64.2-6C62.25-3.65 59.9-2.1 56.35-2.1 51.05-2.1 47.15-5.75 47.1-13.15ZM77.5-20.55C80.6-23.4 82.8-23.9 84.7-23.9 89.1-23.9 92.2-20.1 92.2-12.85 92.2-5.1 88.6-1.85 84.45-1.85 82.25-1.85 79.85-2.75 77.5-5.05ZM77.35-32.2L77.55-39.9 76.8-40.35 69.15-38.25 69.15-36.7 73.7-36.25 73.7-11.4C73.7-8.85 73.65-5 73.6-2.25L69.3-1.6 69.3 0 77 0.5 77.4-3.25C79.9-0.2 82.65 0.7 85.2 0.7 91.7 0.7 96.25-4.9 96.25-13.15 96.25-21.35 91.8-26.4 85.85-26.4 82.95-26.4 80-25.2 77.35-22.25ZM132.99-5.3C130.74-2.75 128.84-1.8 126.29-1.8 121.74-1.8 118.29-5.15 118.29-12.7 118.29-20.6 122.04-23.9 126.44-23.9 128.44-23.9 130.49-23.15 132.99-20.8ZM136.79-2.15L136.79-32.25 136.94-39.9 136.24-40.35 128.44-38.25 128.44-36.7 133.14-36.3 133.14-22.75C130.79-25.5 128.29-26.4 125.84-26.4 119.14-26.4 114.24-21 114.24-12.6 114.24-4.8 118.74 0.7 125.29 0.7 128.64 0.7 131.09-0.75 133.09-3.3L133.39 0.5 141.59 0 141.59-1.6ZM149.19-15.05C149.79-21.4 153.44-24.4 157.09-24.4 160.94-24.4 163.59-21.25 163.59-17.75 163.59-16.15 163.09-15.05 160.89-15.05ZM166.99-13.1C167.24-13.85 167.34-14.9 167.34-16.2 167.34-22.45 163.14-26.4 157.34-26.4 150.74-26.4 145.09-21.05 145.09-12.7 145.09-4.15 150.14 0.7 157.14 0.7 161.79 0.7 165.24-1.6 167.29-5.2L166.24-6C164.29-3.65 161.94-2.1 158.39-2.1 153.09-2.1 149.19-5.75 149.14-13.15ZM181.89-15.25C178.19-16.65 176.79-17.7 176.79-20.25 176.79-22.7 178.64-24.4 182.29-24.4 183.74-24.4 185.14-24.05 186.49-23.3L187.39-18.85 189.59-18.85 189.79-24.25C187.39-25.65 185.19-26.4 182.29-26.4 176.39-26.4 173.14-23 173.14-19.1 173.14-15.4 175.74-13.3 179.74-11.85L182.24-10.9C185.89-9.55 187.44-8.3 187.44-5.85 187.44-3.15 185.34-1.3 180.89-1.3 179.04-1.3 177.54-1.65 176.19-2.25L175.09-7.1 172.69-7.1 172.89-1.25C175.54 0 177.89 0.7 180.89 0.7 187.69 0.7 191.14-2.9 191.14-6.85 191.14-10.2 189.14-12.6 183.84-14.55ZM201.68-33.15C203.48-33.15 204.88-34.4 204.88-36.2 204.88-38.05 203.48-39.25 201.68-39.25 199.93-39.25 198.53-38.05 198.53-36.2 198.53-34.4 199.93-33.15 201.68-33.15ZM203.78-2.25C203.73-5 203.68-8.85 203.68-11.4L203.68-18.75 203.83-25.85 203.08-26.35 195.23-23.75 195.23-22.1 199.83-21.8C199.93-19.3 199.93-17.3 199.93-14.2L199.93-11.4C199.93-8.85 199.88-5 199.83-2.25L195.53-1.6 195.53 0 207.73 0 207.73-1.6ZM222.63-10.35C219.03-10.35 216.83-13.2 216.83-17.45 216.83-21.7 219.13-24.6 222.78-24.6 226.43-24.6 228.58-21.75 228.58-17.6 228.58-13.35 226.33-10.35 222.63-10.35ZM227.18 0.65C231.18 0.65 232.68 2.55 232.68 5.05 232.68 8.35 229.38 11.05 223.13 11.05 218.58 11.05 215.63 9.35 215.63 5.65 215.63 3.6 216.43 2.15 218.13 0.5 218.93 0.6 219.78 0.65 220.78 0.65ZM236.38-25.8L235.53-26.35 229.33-24.4C227.63-25.7 225.38-26.4 222.78-26.4 217.23-26.4 213.13-23.15 213.13-17.5 213.13-13.85 214.73-11.25 217.28-9.8 214.63-7.4 213.63-5.65 213.63-3.85 213.63-1.8 214.93-0.45 217.13 0.15 213.38 1.95 211.88 3.9 211.88 6.3 211.88 10.35 215.48 13.1 223.08 13.1 231.73 13.1 236.08 8.55 236.08 3.9 236.08-0.4 233.38-2.75 227.83-2.75L220.48-2.75C217.68-2.75 216.83-3.85 216.83-5.4 216.83-6.75 217.43-7.85 218.53-9.25 219.78-8.8 221.18-8.55 222.73-8.55 228.23-8.55 232.28-11.8 232.28-17.5 232.28-19.7 231.73-21.5 230.68-22.9L236.38-22.85ZM264.98-2.25C264.88-5 264.83-8.8 264.83-11.4L264.83-16.6C264.83-23.65 262.53-26.4 257.98-26.4 254.63-26.4 250.88-24.45 247.98-21.25L247.58-25.85 246.88-26.35 239.68-23.7 239.68-22.1 244.13-21.75C244.23-19.4 244.33-17.3 244.33-14.15L244.33-11.4C244.33-8.85 244.28-5 244.18-2.2L239.98-1.6 239.98 0 252.18 0 252.18-1.6 248.23-2.25C248.18-5 248.13-8.85 248.13-11.4L248.13-19.3C251.33-22.25 253.88-23.3 256.33-23.3 259.53-23.3 261.03-21.6 261.03-16.4L261.03-11.4C261.03-8.8 260.98-4.95 260.93-2.2L256.68-1.6 256.68 0 268.93 0 268.93-1.6Z" opacity="1" transform="matrix(1,0,0,1,0,0)" fill="#333333" class="slogan-text-1" data-fill-palette-color="secondary" id="text-1"></path></svg></g></svg></g></svg></g></svg></g><g><svg viewBox="0 0 244.43135999999998 244.43135999999998" height="244.43135999999998" width="244.43135999999998"><g><svg viewBox="0 0 244.43135999999998 244.43135999999998" height="244.43135999999998" width="244.43135999999998"><g transform="matrix(1,0,0,1,64.60265593644992,67.34625424860226)"><svg viewBox="0 0 115.22604812710014 109.73885150279546" height="109.73885150279546" width="115.22604812710014"><g><svg xmlns:x="http://ns.adobe.com/Extensibility/1.0/" xmlns:i="http://ns.adobe.com/AdobeIllustrator/10.0/" xmlns:graph="http://ns.adobe.com/Graphs/1.0/" xmlns="http://www.w3.org/2000/svg" xmlns:xlink="http://www.w3.org/1999/xlink" version="1.1" x="0" y="0" viewBox="0.4897819238035984 2.9 98.9102180761964 94.19999999999999" enable-background="new 0 0 100 100" xml:space="preserve" height="109.73885150279546" width="115.22604812710014" class="icon-dxe-0" data-fill-palette-color="accent" id="dxe-0"><path d="M50 2.9C45.9 2.9 42 3.7 38.2 5.3 22.5 11.7 15 29.8 21.5 45.5 26.3 57.1 37.5 64.6 50 64.6 54.1 64.6 58 63.8 61.8 62.2 77.5 55.7 85 37.7 78.5 21.9 73.7 10.4 62.5 2.9 50 2.9M25.5 42.1C23.6 36.7 23.6 30.9 25.5 25.4H32.1C31.6 28.1 31.3 31 31.3 33.7 31.3 36.3 31.6 39.1 32.3 42H25.5zM36.3 33.7C36.3 30.8 36.6 28 37.2 25.4H47.5V42.1H37.4C36.7 39.3 36.3 36.4 36.3 33.7M52.5 9.2C56 10.6 59.2 14.9 61.3 20.4H52.5zM47.5 9.2V20.4H38.7C40.8 14.9 44 10.6 47.5 9.2M47.5 47.1V58.2C44.2 56.7 41.1 52.3 39 47.1zM52.5 58.2V47.1H61C58.9 52.3 55.8 56.7 52.5 58.2M52.5 42.1V25.4H62.8C63.4 28.1 63.7 30.9 63.7 33.7 63.7 36.4 63.3 39.2 62.6 42H52.5zM67.9 25.4H74.5C76.4 31 76.3 36.8 74.5 42.1H67.7C68.4 39.2 68.7 36.3 68.7 33.8 68.7 31 68.4 28.1 67.9 25.4M72.2 20.4H66.6C65.5 16.8 63.9 13.5 61.9 10.8 66.1 13 69.7 16.3 72.2 20.4M38.1 10.8C36.2 13.5 34.6 16.8 33.4 20.4H27.9C30.3 16.3 33.8 13 38.1 10.8M27.8 47.1H33.7C35 50.8 36.7 54.3 38.9 57.2 34.4 55 30.5 51.5 27.8 47.1M61.1 57.1C63.2 54.2 65 50.7 66.2 47.1H72.1C69.6 51.3 65.8 54.9 61.1 57.1M9.7 97.1C12.4 97.1 15 95.9 16.8 93.8 17.6 92.8 18.2 91.7 18.6 90.4H41.2C42.3 94.3 45.8 97.1 50 97.1S57.7 94.3 58.8 90.4H81.4C82.5 94.3 86 97.1 90.2 97.1 95.3 97.1 99.4 93 99.4 87.9S95.3 78.7 90.2 78.7C86 78.7 82.5 81.5 81.4 85.4H58.8C57.9 82.3 55.5 79.9 52.5 79.1V72.2C52.5 70.8 51.4 69.7 50 69.7S47.5 70.8 47.5 72.2V79.1C44.4 80 42 82.4 41.2 85.4H18.5C17.6 82.1 14.8 79.5 11.5 78.9S4.8 79.5 2.6 82.1C0.8 84.2 0.1 87 0.7 89.7 1.4 93.3 4.3 96.3 7.9 96.9 8.5 97.1 9.1 97.1 9.7 97.1M90.3 83.7C92.6 83.7 94.5 85.6 94.5 87.9S92.6 92.1 90.3 92.1C88.1 92.1 86.3 90.4 86.1 88.2V87.6C86.3 85.5 88.1 83.7 90.3 83.7M50 83.7C52.3 83.7 54.2 85.6 54.2 87.9S52.3 92.1 50 92.1 45.8 90.2 45.8 87.9 47.7 83.7 50 83.7M5.6 88.8C5.4 87.5 5.7 86.3 6.5 85.3S8.5 83.8 9.7 83.8C10 83.8 10.3 83.8 10.5 83.9 12.1 84.2 13.5 85.5 13.8 87.2 14 88.5 13.7 89.7 12.9 90.7 11.9 91.9 10.4 92.4 8.8 92.1 7.2 91.7 5.9 90.4 5.6 88.8" fill="#333333" data-fill-palette-color="accent"></path></svg><g></g></g></svg></g><g id="text-0"><path d="M34.774 78.386l-4.46 11.579-1.565-0.603 0.329-0.855c0.212-0.55 0.351-1.074 0.418-1.57 0.062-0.505-0.03-0.971-0.278-1.397-0.25-0.42-0.733-0.768-1.451-1.043v0l-7.037-2.711-14.595 2.284c-0.577 0.086-1.052 0.194-1.426 0.322-0.379 0.126-0.694 0.313-0.944 0.563-0.254 0.24-0.463 0.572-0.625 0.994v0l-0.185 0.48-1.555-0.599 3.938-10.225 1.555 0.599-0.529 1.373c-0.259 0.672-0.311 1.159-0.155 1.461 0.158 0.296 0.397 0.506 0.717 0.629v0c0.352 0.136 0.729 0.196 1.132 0.183 0.402-0.014 0.769-0.042 1.101-0.083v0l6.044-0.837c0.931-0.127 1.83-0.199 2.697-0.218 0.863-0.028 1.618-0.031 2.265-0.01v0c-0.432-0.424-0.951-0.995-1.557-1.713-0.612-0.721-1.222-1.437-1.829-2.149v0l-3.356-4.027c-0.326-0.412-0.662-0.744-1.006-0.994-0.353-0.246-0.677-0.426-0.972-0.539v0c-0.544-0.21-1.028-0.175-1.451 0.103-0.423 0.278-0.773 0.776-1.049 1.492v0l-0.418 1.085-1.555-0.599 3.498-9.083 1.555 0.599-0.17 0.442c-0.136 0.352-0.173 0.716-0.112 1.092 0.052 0.38 0.225 0.818 0.52 1.314 0.288 0.493 0.725 1.095 1.311 1.806v0l8.605 10.491 6.846 2.637c0.768 0.296 1.396 0.383 1.883 0.262 0.49-0.127 0.89-0.403 1.201-0.827 0.302-0.42 0.557-0.903 0.767-1.447v0l0.333-0.864z" fill="#333333" data-fill-palette-color="accent"></path><path d="M44.534 61.737l-6.765 9.77-1.379-0.955 0.299-0.432c0.348-0.502 0.608-0.993 0.782-1.473 0.164-0.478 0.162-0.956-0.009-1.433-0.174-0.471-0.6-0.941-1.276-1.409v0l-16.062-11.124c-0.654-0.453-1.225-0.665-1.713-0.636-0.497 0.031-0.932 0.214-1.305 0.548-0.383 0.336-0.74 0.743-1.072 1.222v0l-0.299 0.432-1.37-0.949 6.086-8.788c1.968-2.842 3.906-4.628 5.814-5.36 1.914-0.727 3.874-0.396 5.882 0.995v0c0.964 0.668 1.664 1.411 2.098 2.229 0.435 0.818 0.655 1.68 0.662 2.586-0.003 0.908-0.145 1.848-0.427 2.821v0l0.127 0.087c1.296-1.305 2.755-2.093 4.377-2.362 1.624-0.26 3.31 0.215 5.058 1.425v0c2.12 1.468 3.224 3.259 3.313 5.373 0.088 2.114-0.852 4.591-2.821 7.433zM40.58 63.942l2.202-3.18c1.285-1.855 1.832-3.416 1.642-4.683-0.191-1.267-1.16-2.505-2.908-3.716v0c-1.133-0.785-2.18-1.28-3.139-1.486-0.955-0.211-1.863-0.081-2.724 0.391-0.861 0.472-1.736 1.351-2.627 2.637v0l-2.249 3.248zM29.144 56.022l1.564-2.258c0.894-1.291 1.436-2.405 1.626-3.342 0.195-0.933 0.071-1.778-0.371-2.535-0.449-0.761-1.198-1.505-2.247-2.232v0c-1.613-1.117-2.984-1.504-4.115-1.16-1.134 0.349-2.344 1.451-3.629 3.306v0l-1.523 2.199z" fill="#333333" data-fill-palette-color="accent"></path><path d="M43.171 34.552l-1.274 1.273-7.834-6.264 2.845-2.845z" fill="#333333" data-fill-palette-color="accent"></path><path d="M66.383 40.177v0c-1.071 0.789-2.097 1.345-3.078 1.667-0.982 0.332-1.877 0.407-2.683 0.226-0.812-0.177-1.495-0.641-2.048-1.392v0c-0.427-0.58-0.64-1.117-0.639-1.613 0.002-0.495 0.11-0.92 0.326-1.275 0.212-0.36 0.447-0.636 0.707-0.828v0c0.822 1.116 1.779 1.889 2.871 2.32 1.096 0.436 2.296 0.174 3.6-0.786v0c1.138-0.838 1.809-1.754 2.013-2.749 0.21-0.998 0-1.925-0.63-2.781v0c-0.395-0.536-0.831-0.891-1.31-1.067-0.479-0.176-1.124-0.22-1.938-0.132-0.807 0.084-1.9 0.288-3.279 0.614v0c-1.46 0.308-2.717 0.498-3.772 0.568-1.056 0.07-1.986-0.071-2.791-0.423-0.795-0.351-1.533-0.988-2.213-1.91v0c-1.07-1.452-1.344-2.975-0.823-4.569 0.531-1.592 1.705-3.058 3.522-4.396v0c1.027-0.757 1.986-1.259 2.878-1.507 0.895-0.242 1.684-0.27 2.367-0.082 0.683 0.187 1.222 0.548 1.616 1.084v0c0.427 0.58 0.572 1.193 0.435 1.839-0.132 0.642-0.573 1.24-1.324 1.793v0c-0.789-1.071-1.629-1.743-2.52-2.015-0.892-0.263-1.808-0.048-2.747 0.643v0c-1.093 0.805-1.698 1.621-1.813 2.448-0.121 0.83 0.095 1.621 0.648 2.372v0c0.598 0.812 1.366 1.213 2.305 1.203 0.929-0.011 2.325-0.256 4.188-0.734v0c1.483-0.369 2.749-0.577 3.796-0.624 1.057-0.046 1.979 0.119 2.765 0.493 0.787 0.374 1.512 1.012 2.175 1.912v0c1.233 1.673 1.583 3.358 1.052 5.053-0.532 1.695-1.75 3.245-3.656 4.648z" fill="#333333" data-fill-palette-color="accent"></path><path d="M98.145 35.026l-10.26 3.11-0.486-1.605 0.305-0.093c0.584-0.177 1.094-0.4 1.528-0.667 0.428-0.266 0.724-0.639 0.887-1.118 0.163-0.479 0.124-1.116-0.117-1.911v0l-6.383-21.061c-0.231-0.761-0.551-1.284-0.959-1.57-0.407-0.278-0.86-0.402-1.36-0.372-0.508 0.025-1.042 0.122-1.6 0.291v0l-0.502 0.152-0.483-1.595 6.685-2.026 1.413 3.313 0.158-0.048c0.23-1.345 0.7-2.502 1.41-3.47 0.706-0.959 1.797-1.663 3.274-2.11v0c2.521-0.764 4.704-0.501 6.549 0.789 1.85 1.281 3.331 3.753 4.441 7.416v0c1.118 3.689 1.266 6.59 0.444 8.703-0.815 2.111-2.483 3.548-5.004 4.311v0c-1.477 0.448-2.773 0.5-3.887 0.157-1.121-0.341-2.111-0.923-2.969-1.745v0l-0.158 0.048c0.275 0.719 0.551 1.488 0.829 2.308 0.277 0.819 0.489 1.472 0.636 1.957v0l1.11 3.663c0.223 0.735 0.534 1.243 0.935 1.523 0.409 0.285 0.866 0.411 1.373 0.379 0.5-0.03 1.032-0.13 1.596-0.301v0l0.108-0.033zM96.735 23.208v0c1.68-0.509 2.668-1.579 2.962-3.209 0.299-1.639 0.045-3.791-0.763-6.455v0c-0.826-2.724-1.806-4.645-2.94-5.764-1.126-1.114-2.542-1.412-4.249-0.895v0c-1.326 0.402-2.275 1.008-2.846 1.819-0.571 0.811-0.835 1.869-0.79 3.175 0.051 1.303 0.354 2.871 0.909 4.702v0c0.533 1.759 1.142 3.202 1.827 4.327 0.692 1.123 1.515 1.888 2.469 2.294 0.954 0.406 2.095 0.408 3.421 0.006z" fill="#333333" data-fill-palette-color="accent"></path><path d="M119.29 22.163v0c-2.862 0.172-5.173-0.609-6.934-2.345-1.753-1.729-2.743-4.466-2.968-8.211v0c-0.224-3.711 0.401-6.525 1.872-8.441 1.465-1.909 3.739-2.957 6.82-3.142v0c2.869-0.173 5.179 0.598 6.932 2.314 1.753 1.722 2.741 4.439 2.964 8.149v0c0.226 3.745-0.394 6.579-1.858 8.502-1.471 1.93-3.747 2.988-6.828 3.174zM119.247 20.084v0c1.328-0.08 2.369-0.483 3.123-1.209 0.754-0.719 1.264-1.767 1.531-3.143 0.261-1.376 0.332-3.047 0.214-5.012v0c-0.179-2.971-0.724-5.175-1.635-6.612-0.911-1.436-2.363-2.094-4.356-1.974v0c-1.986 0.12-3.341 0.947-4.066 2.482-0.718 1.534-0.988 3.787-0.809 6.759v0c0.179 2.971 0.725 5.196 1.639 6.673 0.914 1.477 2.367 2.156 4.359 2.036z" fill="#333333" data-fill-palette-color="accent"></path><path d="M143.478 23.722l-11.364-1.91 0.278-1.654 0.122 0.021c0.602 0.101 1.154 0.128 1.656 0.08 0.51-0.053 0.944-0.259 1.303-0.616 0.352-0.358 0.597-0.943 0.733-1.755v0l2.061-12.267c0.132-0.785 0.081-1.395-0.151-1.83-0.241-0.43-0.595-0.743-1.063-0.94-0.46-0.202-0.977-0.352-1.552-0.449v0l-0.122-0.02 0.277-1.644 6.057 1.018 0.088 4.01 0.203 0.035c0.47-0.728 0.956-1.387 1.459-1.977 0.503-0.59 1.114-1.02 1.833-1.289 0.72-0.269 1.658-0.306 2.815-0.111v0c1.441 0.242 2.468 0.669 3.082 1.28 0.606 0.617 0.831 1.385 0.676 2.304v0c-0.136 0.812-0.529 1.431-1.178 1.858-0.65 0.433-1.631 0.54-2.943 0.319v0c0.181-1.076 0.153-1.883-0.083-2.424-0.23-0.533-0.724-0.862-1.482-0.99v0c-0.737-0.124-1.405 0.06-2.002 0.55-0.59 0.492-1.106 1.16-1.547 2.004-0.441 0.844-0.806 1.732-1.094 2.665-0.29 0.939-0.499 1.787-0.626 2.544v0l-1.039 6.18c-0.127 0.758-0.074 1.351 0.16 1.779 0.241 0.43 0.594 0.747 1.061 0.951 0.461 0.196 0.979 0.342 1.554 0.438v0l1.106 0.186z" fill="#333333" data-fill-palette-color="accent"></path><path d="M158.708 28.642v0c-1.9-0.676-3.129-1.601-3.687-2.776-0.558-1.174-0.454-2.837 0.312-4.989v0l4.467-12.552-2.85-1.014 0.534-1.503c0.446 0.159 0.98 0.243 1.603 0.254 0.616 0.008 1.2-0.13 1.752-0.414v0c0.585-0.294 1.13-0.719 1.634-1.276 0.51-0.554 1.021-1.275 1.533-2.162v0l1.736 0.617-1.646 4.624 4.915 1.749-0.759 2.132-4.914-1.748-4.508 12.669c-0.453 1.273-0.525 2.303-0.215 3.09 0.31 0.787 0.891 1.333 1.743 1.636v0c0.452 0.161 0.874 0.285 1.265 0.374 0.393 0.082 0.804 0.155 1.232 0.22v0l-0.589 1.657c-0.376 0.034-0.912-0.004-1.609-0.113-0.699-0.103-1.349-0.261-1.949-0.476z" fill="#333333" data-fill-palette-color="accent"></path><path d="M175.244 36.686l-10.732-6.042 0.823-1.462 0.448 0.253c0.532 0.299 1.045 0.514 1.539 0.642 0.498 0.123 0.973 0.075 1.426-0.142 0.459-0.214 0.89-0.679 1.294-1.396v0l7.334-13.027-3.164-1.782 0.918-1.632 3.165 1.782 0.979-1.739c1.161-2.062 2.601-3.333 4.32-3.814 1.719-0.481 3.529-0.186 5.429 0.884v0c1.201 0.676 2.099 1.319 2.693 1.929 0.591 0.6 0.941 1.167 1.049 1.701 0.106 0.54 0.022 1.051-0.25 1.535v0c-0.236 0.418-0.554 0.704-0.954 0.856-0.41 0.155-0.872 0.186-1.387 0.093-0.508-0.089-1.041-0.291-1.597-0.603v0c0.262-0.466 0.441-0.952 0.537-1.457 0.105-0.508 0.072-0.987-0.099-1.438-0.175-0.445-0.564-0.837-1.168-1.177v0c-0.998-0.562-1.898-0.565-2.699-0.008-0.801 0.556-1.612 1.564-2.434 3.022v0l-1.156 2.053 4.905 2.761-0.919 1.632-4.904-2.761-7.334 13.027c-0.404 0.717-0.578 1.328-0.523 1.831 0.049 0.5 0.261 0.934 0.636 1.302 0.378 0.363 0.822 0.687 1.33 0.973v0l1.317 0.742z" fill="#333333" data-fill-palette-color="accent"></path><path d="M185.627 45.079v0c-2.227-1.805-3.404-3.943-3.531-6.412-0.126-2.459 0.993-5.146 3.355-8.061v0c2.341-2.888 4.701-4.542 7.081-4.961 2.37-0.419 4.754 0.344 7.152 2.287v0c2.233 1.81 3.416 3.939 3.551 6.388 0.13 2.454-0.976 5.125-3.317 8.013v0c-2.363 2.915-4.733 4.587-7.112 5.015-2.388 0.43-4.782-0.326-7.179-2.269zM186.999 43.516v0c1.034 0.838 2.073 1.244 3.12 1.217 1.041-0.021 2.126-0.449 3.252-1.284 1.122-0.839 2.302-2.023 3.542-3.552v0c1.875-2.313 2.961-4.306 3.258-5.981 0.298-1.675-0.329-3.14-1.879-4.397v0c-1.545-1.253-3.104-1.558-4.675-0.916-1.566 0.647-3.286 2.126-5.16 4.439v0c-1.875 2.313-2.974 4.322-3.298 6.029-0.324 1.707 0.29 3.188 1.84 4.445z" fill="#333333" data-fill-palette-color="accent"></path><path d="M202.198 61.8l-7.193-8.75 1.295-1.065 0.333 0.405c0.388 0.472 0.789 0.857 1.203 1.156 0.415 0.289 0.875 0.417 1.381 0.383 0.505-0.034 1.076-0.312 1.711-0.834v0l16.508-13.571c0.62-0.51 0.98-1.006 1.081-1.488 0.101-0.482 0.041-0.949-0.178-1.399-0.218-0.46-0.512-0.915-0.883-1.365v0l-0.333-0.406 1.296-1.065 4.789 5.826-19.901 16.361c-0.636 0.523-1.019 1.029-1.15 1.518-0.135 0.484-0.094 0.965 0.122 1.444 0.217 0.47 0.513 0.932 0.888 1.388v0l0.327 0.397z" fill="#333333" data-fill-palette-color="accent"></path><path d="M209.456 73.471l-5.935-9.649 1.428-0.878 0.275 0.447c0.305 0.497 0.635 0.922 0.99 1.275 0.364 0.356 0.79 0.565 1.279 0.626 0.485 0.056 1.055-0.118 1.71-0.52v0l10.77-6.625c0.678-0.417 1.104-0.856 1.279-1.318 0.165-0.464 0.168-0.937 0.009-1.419-0.15-0.479-0.378-0.968-0.683-1.464v0l-0.065-0.105 1.42-0.873 3.741 6.082-14.329 8.813c-0.701 0.431-1.151 0.877-1.351 1.339-0.196 0.467-0.219 0.952-0.07 1.456 0.151 0.495 0.38 0.99 0.685 1.487v0l0.275 0.447zM228.007 55.223v0c-0.334-0.543-0.459-1.099-0.374-1.667 0.091-0.572 0.52-1.093 1.285-1.564v0c0.795-0.489 1.459-0.64 1.993-0.452 0.54 0.183 0.977 0.547 1.311 1.09v0c0.32 0.52 0.444 1.068 0.371 1.644-0.067 0.572-0.497 1.103-1.292 1.592v0c-0.765 0.471-1.427 0.612-1.986 0.424-0.553-0.192-0.989-0.547-1.309-1.067z" fill="#333333" data-fill-palette-color="accent"></path><path d="M213.781 85.246v0c-1.057-2.665-1.036-5.105 0.064-7.319 1.095-2.205 3.387-4 6.874-5.383v0c3.456-1.371 6.324-1.656 8.604-0.856 2.271 0.796 3.976 2.629 5.114 5.498v0c1.06 2.672 1.048 5.107-0.035 7.308-1.089 2.203-3.362 3.99-6.817 5.36v0c-3.488 1.383-6.373 1.679-8.657 0.888-2.293-0.795-4.008-2.627-5.147-5.496zM215.744 84.556v0c0.491 1.237 1.198 2.1 2.122 2.59 0.918 0.492 2.073 0.65 3.465 0.474 1.389-0.182 2.998-0.636 4.828-1.362v0c2.767-1.097 4.691-2.303 5.771-3.617 1.08-1.314 1.252-2.898 0.516-4.753v0c-0.733-1.849-1.942-2.879-3.627-3.089-1.682-0.204-3.907 0.243-6.673 1.341v0c-2.767 1.097-4.71 2.311-5.829 3.64-1.118 1.329-1.31 2.921-0.573 4.776z" fill="#333333" data-fill-palette-color="accent"></path><path d="M14.828 169.984l-4.46-11.579 1.565-0.603 0.329 0.855c0.212 0.55 0.46 1.032 0.744 1.444 0.293 0.416 0.674 0.7 1.143 0.85 0.467 0.144 1.059 0.077 1.776-0.199v0l7.038-2.71 9.292-11.484c0.37-0.451 0.65-0.85 0.841-1.195 0.197-0.348 0.305-0.698 0.323-1.051 0.027-0.349-0.04-0.734-0.203-1.156v0l-0.185-0.48 1.556-0.599 3.938 10.225-1.556 0.599-0.528-1.373c-0.259-0.672-0.547-1.068-0.866-1.188-0.316-0.114-0.634-0.109-0.954 0.014v0c-0.352 0.136-0.673 0.344-0.961 0.624-0.289 0.28-0.543 0.547-0.761 0.801v0l-3.922 4.674c-0.605 0.718-1.223 1.375-1.854 1.971-0.622 0.6-1.179 1.108-1.672 1.526v0c0.605 0.024 1.373 0.1 2.303 0.227 0.937 0.124 1.87 0.246 2.798 0.366v0l5.19 0.736c0.519 0.087 0.99 0.108 1.413 0.062 0.427-0.054 0.788-0.138 1.083-0.252v0c0.544-0.21 0.88-0.559 1.007-1.049 0.127-0.49 0.053-1.094-0.223-1.81v0l-0.418-1.085 1.555-0.599 3.498 9.082-1.555 0.599-0.17-0.441c-0.136-0.352-0.352-0.647-0.65-0.886-0.294-0.247-0.716-0.456-1.266-0.625-0.544-0.173-1.272-0.326-2.184-0.46v0l-13.42-2.009-6.846 2.636c-0.768 0.296-1.292 0.652-1.572 1.069-0.278 0.423-0.39 0.896-0.336 1.419 0.058 0.514 0.192 1.043 0.402 1.587v0l0.333 0.864z" fill="#333333" data-fill-palette-color="accent"></path><path d="M26.963 191.12l-6.766-9.769 1.379-0.955 0.299 0.431c0.348 0.502 0.716 0.919 1.103 1.251 0.39 0.322 0.838 0.487 1.345 0.495 0.502 0.003 1.092-0.231 1.768-0.699v0l16.063-11.124c0.654-0.453 1.053-0.913 1.197-1.38 0.146-0.476 0.128-0.948-0.054-1.414-0.18-0.476-0.435-0.954-0.767-1.434v0l-0.299-0.431 1.37-0.949 6.086 8.788c1.968 2.842 2.959 5.285 2.973 7.328 0.008 2.047-0.992 3.766-3 5.156v0c-0.964 0.668-1.906 1.061-2.824 1.18-0.919 0.119-1.803 0.022-2.654-0.289-0.849-0.322-1.679-0.786-2.49-1.392v0l-0.127 0.088c0.766 1.672 0.99 3.315 0.672 4.928-0.327 1.612-1.365 3.023-3.113 4.234v0c-2.12 1.468-4.185 1.872-6.194 1.211-2.01-0.661-3.998-2.412-5.967-5.254zM26.29 186.643l2.203 3.18c1.285 1.855 2.554 2.916 3.806 3.183 1.253 0.267 2.753-0.205 4.502-1.415v0c1.133-0.785 1.965-1.59 2.494-2.416 0.533-0.82 0.731-1.716 0.592-2.688-0.139-0.972-0.654-2.1-1.544-3.386v0l-2.25-3.248zM37.726 178.723l1.564 2.258c0.894 1.291 1.746 2.19 2.556 2.698 0.804 0.511 1.639 0.692 2.504 0.543 0.871-0.152 1.83-0.592 2.879-1.318v0c1.613-1.117 2.457-2.265 2.534-3.444 0.072-1.185-0.534-2.705-1.819-4.56v0l-1.523-2.199z" fill="#333333" data-fill-palette-color="accent"></path><path d="M54.217 195.086l-1.273-1.273 6.263-7.836 2.845 2.845z" fill="#333333" data-fill-palette-color="accent"></path><path d="M53.23 218.366v0c-1.071-0.789-1.906-1.604-2.505-2.446-0.608-0.84-0.945-1.672-1.011-2.495-0.072-0.828 0.169-1.618 0.723-2.369v0c0.427-0.58 0.877-0.942 1.351-1.088 0.473-0.145 0.912-0.168 1.314-0.067 0.407 0.095 0.74 0.239 1 0.43v0c-0.822 1.116-1.276 2.259-1.364 3.43-0.091 1.176 0.515 2.245 1.818 3.205v0c1.138 0.838 2.212 1.207 3.221 1.108 1.016-0.095 1.839-0.571 2.47-1.427v0c0.395-0.536 0.605-1.058 0.631-1.567 0.026-0.509-0.124-1.139-0.449-1.889-0.319-0.746-0.839-1.73-1.558-2.95v0c-0.727-1.303-1.281-2.447-1.662-3.435-0.38-0.987-0.521-1.918-0.423-2.791 0.1-0.864 0.489-1.757 1.169-2.679v0c1.07-1.452 2.443-2.166 4.12-2.14 1.678 0.035 3.426 0.722 5.242 2.06v0c1.027 0.757 1.791 1.524 2.292 2.301 0.496 0.783 0.757 1.529 0.78 2.237 0.024 0.708-0.161 1.329-0.556 1.865v0c-0.427 0.58-0.97 0.9-1.628 0.96-0.652 0.065-1.354-0.18-2.105-0.733v0c0.789-1.071 1.182-2.073 1.178-3.004-0.013-0.93-0.49-1.741-1.428-2.432v0c-1.093-0.805-2.052-1.141-2.875-1.007-0.829 0.131-1.52 0.571-2.074 1.323v0c-0.598 0.812-0.753 1.664-0.465 2.558 0.286 0.884 0.933 2.144 1.942 3.782v0c0.792 1.307 1.366 2.454 1.721 3.44 0.357 0.996 0.473 1.925 0.349 2.787-0.124 0.863-0.518 1.744-1.181 2.644v0c-1.233 1.673-2.737 2.507-4.514 2.502-1.777-0.005-3.618-0.71-5.523-2.113z" fill="#333333" data-fill-palette-color="accent"></path><path d="M86.395 244.431l-10.26-3.109 0.487-1.605 0.305 0.092c0.584 0.177 1.132 0.275 1.642 0.294 0.504 0.017 0.957-0.129 1.358-0.438 0.402-0.308 0.723-0.86 0.964-1.654v0l6.383-21.061c0.231-0.761 0.255-1.374 0.073-1.838-0.184-0.457-0.492-0.812-0.925-1.065-0.437-0.261-0.934-0.477-1.492-0.646v0l-0.502-0.152 0.483-1.595 6.686 2.026-0.664 3.54 0.157 0.048c0.938-0.991 1.971-1.692 3.1-2.103 1.119-0.406 2.417-0.385 3.894 0.062v0c2.521 0.764 4.191 2.195 5.01 4.292 0.828 2.093 0.687 4.971-0.423 8.634v0c-1.118 3.689-2.605 6.184-4.462 7.485-1.85 1.303-4.035 1.572-6.556 0.808v0c-1.477-0.448-2.584-1.123-3.32-2.028-0.743-0.906-1.243-1.939-1.501-3.099v0l-0.157-0.048c-0.17 0.751-0.368 1.544-0.593 2.379-0.224 0.835-0.41 1.495-0.557 1.982v0l-1.11 3.662c-0.223 0.735-0.246 1.33-0.068 1.786 0.182 0.464 0.492 0.823 0.931 1.078 0.432 0.253 0.931 0.465 1.495 0.636v0l0.109 0.032zM91.783 233.819v0c1.68 0.509 3.096 0.168 4.245-1.025 1.158-1.197 2.141-3.128 2.949-5.793v0c0.826-2.724 1.077-4.866 0.755-6.426-0.318-1.551-1.331-2.586-3.038-3.103v0c-1.326-0.402-2.452-0.424-3.377-0.067-0.925 0.357-1.732 1.091-2.419 2.202-0.681 1.112-1.299 2.584-1.855 4.416v0c-0.533 1.759-0.827 3.297-0.882 4.613-0.048 1.318 0.212 2.411 0.78 3.279 0.568 0.868 1.516 1.502 2.842 1.904z" fill="#333333" data-fill-palette-color="accent"></path><path d="M117.956 240.661v0c-2.862-0.172-5.063-1.226-6.602-3.16-1.533-1.927-2.187-4.763-1.961-8.508v0c0.224-3.711 1.181-6.429 2.872-8.155 1.684-1.719 4.067-2.486 7.148-2.301v0c2.869 0.173 5.07 1.216 6.604 3.129 1.533 1.92 2.188 4.736 1.965 8.447v0c-0.226 3.745-1.181 6.484-2.866 8.217-1.692 1.74-4.079 2.517-7.16 2.331zM118.163 238.592v0c1.328 0.08 2.41-0.195 3.245-0.825 0.835-0.623 1.467-1.602 1.899-2.937 0.424-1.335 0.695-2.985 0.813-4.95v0c0.179-2.971-0.098-5.225-0.829-6.76-0.732-1.535-2.094-2.363-4.087-2.483v0c-1.986-0.12-3.43 0.539-4.335 1.976-0.897 1.437-1.436 3.641-1.615 6.613v0c-0.179 2.971 0.096 5.245 0.826 6.821 0.73 1.576 2.091 2.424 4.083 2.545z" fill="#333333" data-fill-palette-color="accent"></path><path d="M147.02 238.045l-11.364 1.909-0.278-1.653 0.122-0.021c0.602-0.101 1.132-0.256 1.591-0.465 0.464-0.217 0.808-0.553 1.031-1.008 0.216-0.454 0.256-1.086 0.119-1.898v0l-2.062-12.267c-0.132-0.785-0.379-1.345-0.741-1.68-0.368-0.328-0.805-0.508-1.312-0.542-0.501-0.041-1.039-0.013-1.613 0.084v0l-0.122 0.02-0.276-1.644 6.057-1.017 1.394 3.761 0.203-0.034c0.206-0.841 0.451-1.623 0.732-2.345 0.282-0.722 0.719-1.328 1.312-1.817 0.592-0.489 1.467-0.831 2.624-1.025v0c1.441-0.242 2.551-0.175 3.331 0.202 0.774 0.385 1.238 1.037 1.393 1.956v0c0.136 0.812-0.032 1.525-0.507 2.141-0.473 0.622-1.365 1.043-2.677 1.264v0c-0.181-1.076-0.471-1.83-0.871-2.264-0.392-0.428-0.967-0.578-1.724-0.451v0c-0.737 0.124-1.308 0.515-1.712 1.174-0.397 0.658-0.666 1.458-0.807 2.4-0.141 0.942-0.195 1.9-0.163 2.876 0.033 0.982 0.113 1.852 0.24 2.609v0l1.038 6.179c0.127 0.758 0.372 1.301 0.733 1.63 0.368 0.328 0.806 0.511 1.314 0.551 0.5 0.034 1.037 0.003 1.611-0.093v0l1.106-0.186z" fill="#333333" data-fill-palette-color="accent"></path><path d="M166.142 232.94v0c-1.9 0.676-3.437 0.735-4.611 0.177-1.174-0.558-2.144-1.913-2.91-4.065v0l-4.466-12.552-2.85 1.014-0.535-1.503c0.446-0.159 0.913-0.431 1.403-0.815 0.483-0.383 0.848-0.859 1.097-1.428v0c0.268-0.598 0.421-1.271 0.461-2.021 0.046-0.752-0.013-1.633-0.177-2.645v0l1.735-0.617 1.645 4.623 4.915-1.748 0.758 2.132-4.914 1.749 4.508 12.669c0.453 1.273 1.048 2.117 1.785 2.532 0.737 0.415 1.532 0.47 2.386 0.166v0c0.452-0.161 0.858-0.331 1.216-0.509 0.356-0.185 0.721-0.388 1.095-0.608v0l0.589 1.658c-0.27 0.264-0.71 0.573-1.319 0.928-0.607 0.361-1.211 0.649-1.811 0.863z" fill="#333333" data-fill-palette-color="accent"></path><path d="M185.73 222.627l-10.732 6.042-0.823-1.461 0.448-0.252c0.532-0.299 0.981-0.627 1.348-0.983 0.363-0.362 0.569-0.793 0.618-1.293 0.055-0.503-0.119-1.114-0.523-1.831v0l-7.334-13.027-3.165 1.782-0.918-1.632 3.165-1.781-0.98-1.74c-1.161-2.062-1.501-3.953-1.02-5.671 0.481-1.719 1.671-3.113 3.572-4.184v0c1.201-0.676 2.217-1.11 3.045-1.301 0.82-0.194 1.486-0.199 1.999-0.015 0.516 0.19 0.91 0.526 1.183 1.01v0c0.236 0.418 0.315 0.838 0.237 1.26-0.08 0.431-0.293 0.842-0.64 1.234-0.34 0.388-0.788 0.739-1.344 1.052v0c-0.262-0.466-0.585-0.871-0.967-1.215-0.38-0.353-0.807-0.573-1.281-0.66-0.471-0.081-1.008 0.048-1.612 0.388v0c-0.998 0.562-1.467 1.33-1.407 2.303 0.06 0.974 0.501 2.19 1.322 3.648v0l1.156 2.053 4.904-2.761 0.919 1.632-4.904 2.761 7.334 13.027c0.404 0.717 0.835 1.183 1.294 1.397 0.453 0.217 0.934 0.261 1.444 0.131 0.506-0.135 1.013-0.346 1.521-0.632v0l1.318-0.742z" fill="#333333" data-fill-palette-color="accent"></path><path d="M199.591 212.837v0c-2.227 1.805-4.562 2.515-7.003 2.128-2.432-0.386-4.829-2.036-7.192-4.952v0c-2.341-2.888-3.47-5.54-3.389-7.954 0.081-2.405 1.32-4.58 3.718-6.524v0c2.233-1.81 4.561-2.527 6.985-2.151 2.428 0.381 4.812 2.015 7.153 4.903v0c2.363 2.915 3.508 5.58 3.435 7.996-0.073 2.426-1.309 4.61-3.707 6.554zM198.346 211.171v0c1.034-0.838 1.646-1.771 1.837-2.8 0.195-1.023 0.001-2.172-0.583-3.448-0.589-1.271-1.503-2.671-2.743-4.2v0c-1.875-2.313-3.6-3.788-5.176-4.426-1.577-0.638-3.14-0.329-4.691 0.929v0c-1.545 1.253-2.166 2.714-1.863 4.384 0.309 1.666 1.4 3.655 3.274 5.967v0c1.875 2.313 3.613 3.804 5.216 4.474 1.603 0.67 3.179 0.376 4.73-0.88z" fill="#333333" data-fill-palette-color="accent"></path><path d="M218.709 192.461l-7.194 8.751-1.295-1.066 0.333-0.405c0.388-0.472 0.688-0.939 0.901-1.404 0.203-0.463 0.24-0.94 0.109-1.428-0.131-0.489-0.514-0.995-1.149-1.518v0l-16.508-13.571c-0.62-0.51-1.176-0.767-1.669-0.773-0.493-0.005-0.939 0.143-1.338 0.445-0.409 0.303-0.799 0.68-1.169 1.131v0l-0.333 0.405-1.295-1.065 4.789-5.826 19.901 16.361c0.636 0.523 1.206 0.801 1.711 0.834 0.501 0.039 0.965-0.094 1.394-0.399 0.419-0.304 0.815-0.684 1.19-1.14v0l0.327-0.397z" fill="#333333" data-fill-palette-color="accent"></path><path d="M227.661 178.416l-5.935 9.648-1.428-0.878 0.275-0.447c0.305-0.497 0.536-0.983 0.692-1.459 0.154-0.485 0.148-0.96-0.018-1.424-0.169-0.458-0.581-0.889-1.235-1.291v0l-10.771-6.625c-0.678-0.417-1.262-0.599-1.753-0.547-0.489 0.062-0.912 0.272-1.27 0.631-0.36 0.35-0.693 0.773-0.999 1.27v0l-0.065 0.106-1.419-0.874 3.741-6.082 14.328 8.814c0.701 0.431 1.302 0.632 1.804 0.602 0.505-0.036 0.949-0.234 1.332-0.594 0.373-0.358 0.713-0.786 1.018-1.282v0l0.275-0.447zM203.008 170.088v0c-0.334 0.543-0.774 0.905-1.319 1.085-0.551 0.176-1.21 0.029-1.975-0.442v0c-0.795-0.489-1.229-1.014-1.303-1.574-0.08-0.564 0.048-1.118 0.382-1.662v0c0.32-0.52 0.753-0.878 1.3-1.072 0.541-0.199 1.209-0.054 2.003 0.435v0c0.765 0.471 1.19 0.998 1.274 1.581 0.078 0.58-0.042 1.129-0.362 1.649z" fill="#333333" data-fill-palette-color="accent"></path><path d="M234.396 163.618v0c-1.057 2.665-2.745 4.427-5.063 5.286-2.309 0.855-5.208 0.591-8.695-0.792v0c-3.456-1.371-5.74-3.129-6.852-5.274-1.108-2.137-1.093-4.639 0.045-7.509v0c1.06-2.672 2.738-4.437 5.034-5.297 2.303-0.858 5.182-0.601 8.638 0.769v0c3.488 1.383 5.792 3.146 6.913 5.287 1.125 2.151 1.118 4.66-0.02 7.53zM232.494 162.775v0c0.491-1.237 0.567-2.35 0.229-3.34-0.332-0.987-1.064-1.894-2.197-2.72-1.136-0.819-2.619-1.592-4.449-2.318v0c-2.767-1.097-4.994-1.538-6.681-1.322-1.687 0.216-2.898 1.252-3.635 3.108v0c-0.733 1.849-0.559 3.427 0.524 4.735 1.085 1.301 3.011 2.5 5.779 3.598v0c2.767 1.097 5.013 1.546 6.738 1.344 1.725-0.201 2.956-1.229 3.692-3.085z" fill="#333333" data-fill-palette-color="accent"></path><path d="M2.953 120.344c0-6.477 5.251-11.728 11.728-11.728 6.477 0 11.728 5.251 11.728 11.728 0 6.477-5.251 11.728-11.728 11.728-6.477 0-11.728-5.251-11.728-11.728z" fill="#333333" data-fill-palette-color="accent"></path><path d="M219.575 120.344c0-6.477 5.251-11.728 11.729-11.728 6.477 0 11.728 5.251 11.728 11.728 0 6.477-5.251 11.728-11.728 11.728-6.477 0-11.728-5.251-11.729-11.728z" fill="#333333" data-fill-palette-color="accent"></path></g><g id="text-1"></g></svg></g></svg></g></svg></g><defs></defs></svg><rect width="395.52" height="142.7525143432593" fill="none" stroke="none" visibility="hidden"></rect></g></svg></g></svg>