<svg width="200" height="56" viewBox="0 0 200 56" fill="none" xmlns="http://www.w3.org/2000/svg">
<rect width="200" height="56" rx="28" fill="#D1A053"/>
<rect width="200" height="50" rx="25" fill="#FABE61"/>
<path d="M79.3807 17.4545L83.1662 28.9034H83.3153L87.0938 17.4545H89.9915L84.8636 32H81.6108L76.4901 17.4545H79.3807ZM92.7937 32V21.0909H95.3647V32H92.7937ZM94.0863 19.5426C93.6791 19.5426 93.3287 19.4077 93.0352 19.1378C92.7416 18.8632 92.5948 18.5341 92.5948 18.1506C92.5948 17.7623 92.7416 17.4332 93.0352 17.1634C93.3287 16.8887 93.6791 16.7514 94.0863 16.7514C94.4982 16.7514 94.8486 16.8887 95.1374 17.1634C95.431 17.4332 95.5778 17.7623 95.5778 18.1506C95.5778 18.5341 95.431 18.8632 95.1374 19.1378C94.8486 19.4077 94.4982 19.5426 94.0863 19.5426ZM103.838 32.2131C102.744 32.2131 101.8 31.9858 101.004 31.5312C100.214 31.072 99.6051 30.4233 99.179 29.5852C98.7528 28.7424 98.5398 27.7505 98.5398 26.6094C98.5398 25.4872 98.7528 24.5024 99.179 23.6548C99.6098 22.8026 100.211 22.1397 100.983 21.6662C101.755 21.188 102.661 20.9489 103.703 20.9489C104.375 20.9489 105.01 21.0578 105.607 21.2756C106.208 21.4886 106.738 21.8201 107.197 22.2699C107.661 22.7197 108.026 23.2926 108.291 23.9886C108.556 24.6799 108.689 25.5038 108.689 26.4602V27.2486H99.7472V25.5156H106.224C106.22 25.0232 106.113 24.5852 105.905 24.2017C105.696 23.8134 105.405 23.508 105.031 23.2855C104.662 23.063 104.231 22.9517 103.739 22.9517C103.213 22.9517 102.751 23.0795 102.354 23.3352C101.956 23.5862 101.646 23.9176 101.423 24.3295C101.205 24.7367 101.094 25.1842 101.089 25.6719V27.1847C101.089 27.8191 101.205 28.3636 101.438 28.8182C101.67 29.268 101.994 29.6136 102.411 29.8551C102.827 30.0919 103.315 30.2102 103.874 30.2102C104.248 30.2102 104.586 30.1581 104.889 30.054C105.192 29.9451 105.455 29.7865 105.678 29.5781C105.9 29.3698 106.068 29.1117 106.182 28.804L108.582 29.0739C108.431 29.7083 108.142 30.2623 107.716 30.7358C107.295 31.2045 106.755 31.5691 106.097 31.8295C105.438 32.0852 104.686 32.2131 103.838 32.2131ZM114.057 32L110.974 21.0909H113.595L115.513 28.7614H115.612L117.572 21.0909H120.165L122.125 28.7188H122.232L124.121 21.0909H126.749L123.659 32H120.982L118.936 24.6278H118.787L116.741 32H114.057Z" fill="black"/>
</svg>
