<svg width="200" height="50" viewBox="0 0 200 50" fill="none" xmlns="http://www.w3.org/2000/svg">
<rect width="200" height="50" rx="25" fill="#D1A053"/>
<path d="M76.3807 16.4545L80.1662 27.9034H80.3153L84.0938 16.4545H86.9915L81.8636 31H78.6108L73.4901 16.4545H76.3807ZM89.7937 31V20.0909H92.3647V31H89.7937ZM91.0863 18.5426C90.6791 18.5426 90.3287 18.4077 90.0352 18.1378C89.7416 17.8632 89.5948 17.5341 89.5948 17.1506C89.5948 16.7623 89.7416 16.4332 90.0352 16.1634C90.3287 15.8887 90.6791 15.7514 91.0863 15.7514C91.4982 15.7514 91.8486 15.8887 92.1374 16.1634C92.431 16.4332 92.5778 16.7623 92.5778 17.1506C92.5778 17.5341 92.431 17.8632 92.1374 18.1378C91.8486 18.4077 91.4982 18.5426 91.0863 18.5426ZM100.838 31.2131C99.7443 31.2131 98.7997 30.9858 98.0043 30.5312C97.2135 30.072 96.6051 29.4233 96.179 28.5852C95.7528 27.7424 95.5398 26.7505 95.5398 25.6094C95.5398 24.4872 95.7528 23.5024 96.179 22.6548C96.6098 21.8026 97.2112 21.1397 97.983 20.6662C98.7547 20.188 99.6615 19.9489 100.703 19.9489C101.375 19.9489 102.01 20.0578 102.607 20.2756C103.208 20.4886 103.738 20.8201 104.197 21.2699C104.661 21.7197 105.026 22.2926 105.291 22.9886C105.556 23.6799 105.689 24.5038 105.689 25.4602V26.2486H96.7472V24.5156H103.224C103.22 24.0232 103.113 23.5852 102.905 23.2017C102.696 22.8134 102.405 22.508 102.031 22.2855C101.662 22.063 101.231 21.9517 100.739 21.9517C100.213 21.9517 99.7514 22.0795 99.3537 22.3352C98.956 22.5862 98.6458 22.9176 98.4233 23.3295C98.2055 23.7367 98.0942 24.1842 98.0895 24.6719V26.1847C98.0895 26.8191 98.2055 27.3636 98.4375 27.8182C98.6695 28.268 98.9938 28.6136 99.4105 28.8551C99.8272 29.0919 100.315 29.2102 100.874 29.2102C101.248 29.2102 101.586 29.1581 101.889 29.054C102.192 28.9451 102.455 28.7865 102.678 28.5781C102.9 28.3698 103.068 28.1117 103.182 27.804L105.582 28.0739C105.431 28.7083 105.142 29.2623 104.716 29.7358C104.295 30.2045 103.755 30.5691 103.097 30.8295C102.438 31.0852 101.686 31.2131 100.838 31.2131ZM111.057 31L107.974 20.0909H110.595L112.513 27.7614H112.612L114.572 20.0909H117.165L119.125 27.7188H119.232L121.121 20.0909H123.749L120.659 31H117.982L115.936 23.6278H115.787L113.741 31H111.057Z" fill="black" fill-opacity="0.69"/>
</svg>
